<svg xmlns="http://www.w3.org/2000/svg" xmlns:xlink="http://www.w3.org/1999/xlink" viewBox="0 0 476.5 62.5"><defs><style>.cls-1{fill:url(#Degradado_sin_nombre_29);}.cls-2{fill:url(#Degradado_sin_nombre_29-2);}.cls-3{fill:url(#Degradado_sin_nombre_29-3);}.cls-4{fill:url(#Degradado_sin_nombre_29-4);}.cls-5{fill:url(#Degradado_sin_nombre_29-5);}.cls-6{fill:url(#Degradado_sin_nombre_29-6);}.cls-7{fill:url(#Degradado_sin_nombre_29-7);}.cls-8{fill:url(#Degradado_sin_nombre_29-8);}.cls-9{fill:url(#Degradado_sin_nombre_29-9);}.cls-10{fill:url(#Degradado_sin_nombre_29-10);}.cls-11{fill:url(#Degradado_sin_nombre_41);}.cls-12{fill:url(#Degradado_sin_nombre_29-11);}.cls-13{fill:url(#Degradado_sin_nombre_29-12);}</style><linearGradient id="Degradado_sin_nombre_29" x1="91.87" y1="1.25" x2="91.87" y2="31.93" gradientUnits="userSpaceOnUse"><stop offset="0" stop-color="#51a7e2"/><stop offset="1" stop-color="#1453a2"/></linearGradient><linearGradient id="Degradado_sin_nombre_29-2" x1="135.27" y1="1.25" x2="135.27" y2="31.93" xlink:href="#Degradado_sin_nombre_29"/><linearGradient id="Degradado_sin_nombre_29-3" x1="180.86" y1="1.25" x2="180.86" y2="31.93" xlink:href="#Degradado_sin_nombre_29"/><linearGradient id="Degradado_sin_nombre_29-4" x1="272.3" y1="1.25" x2="272.3" y2="31.93" xlink:href="#Degradado_sin_nombre_29"/><linearGradient id="Degradado_sin_nombre_29-5" x1="316.72" y1="1.25" x2="316.72" y2="31.93" xlink:href="#Degradado_sin_nombre_29"/><linearGradient id="Degradado_sin_nombre_29-6" x1="359.91" y1="1.25" x2="359.91" y2="31.93" xlink:href="#Degradado_sin_nombre_29"/><linearGradient id="Degradado_sin_nombre_29-7" x1="390.51" y1="1.25" x2="390.51" y2="31.93" xlink:href="#Degradado_sin_nombre_29"/><linearGradient id="Degradado_sin_nombre_29-8" x1="0" y1="42.62" x2="102.74" y2="42.62" xlink:href="#Degradado_sin_nombre_29"/><linearGradient id="Degradado_sin_nombre_29-9" x1="36.79" y1="42.66" x2="85.72" y2="42.66" xlink:href="#Degradado_sin_nombre_29"/><linearGradient id="Degradado_sin_nombre_29-10" x1="225.13" y1="44.27" x2="225.13" y2="0" xlink:href="#Degradado_sin_nombre_29"/><linearGradient id="Degradado_sin_nombre_41" x1="226.57" y1="46.1" x2="226.57" y2="21.5" gradientUnits="userSpaceOnUse"><stop offset="0" stop-color="#3fff4c"/><stop offset="1" stop-color="#00a208"/></linearGradient><linearGradient id="Degradado_sin_nombre_29-11" x1="476.5" y1="40.2" x2="373.75" y2="40.2" xlink:href="#Degradado_sin_nombre_29"/><linearGradient id="Degradado_sin_nombre_29-12" x1="444.17" y1="40.23" x2="395.24" y2="40.23" xlink:href="#Degradado_sin_nombre_29"/></defs><title>eccologo</title><g id="Capa_2" data-name="Capa 2"><g id="Capa_2-2" data-name="Capa 2"><path class="cls-1" d="M107.71,3.69a6.7,6.7,0,0,1-2,4.93,6.73,6.73,0,0,1-5,2.05H84.31c.64.4,1.41.84,2.29,1.32a5.41,5.41,0,0,1,2.72,4.13h18.39v2.27a7,7,0,0,1-7,7H89.4v5.45h18.31v2.26a7,7,0,0,1-7,7H89.4V42.3a2.06,2.06,0,0,1-1.13,1.92,2.11,2.11,0,0,1-1,.27,2.17,2.17,0,0,1-1.16-.33l-7.2-4.58-.19-.14A6.88,6.88,0,0,1,76,33.67V5.85a4.26,4.26,0,0,1,1.29-3.13,4.24,4.24,0,0,1,3.13-1.3h27.26ZM85.52,13.91C84,13.05,82.8,12.34,82,11.81A9.38,9.38,0,0,1,79.32,9.4a5.28,5.28,0,0,1-1.08-2.72v27a4.84,4.84,0,0,0,1.78,4l7.2,4.58V17.17A3.41,3.41,0,0,0,85.52,13.91Z"/><path class="cls-2" d="M148.69,1.45A4.25,4.25,0,0,1,152,2.93a4.15,4.15,0,0,1,1.16,3.18V17.25a6.6,6.6,0,0,1-3.29,5.94,1.36,1.36,0,0,1-.24.13l-7.77,3.61a2.39,2.39,0,0,1-.94.19,2.25,2.25,0,0,1-1.16-.32,2.06,2.06,0,0,1-1-1.86V15.28A5.55,5.55,0,0,1,141,10.67H136.8a9.76,9.76,0,0,0-7.2,3,9.81,9.81,0,0,0-3,7.22,9.49,9.49,0,0,0,3,7.09,9.93,9.93,0,0,0,7.2,2.89h8.41a7,7,0,0,1,7,7v2.27H136.8a18.9,18.9,0,0,1-13.75-5.58,18.42,18.42,0,0,1-5.69-13.65,18.76,18.76,0,0,1,5.53-13.61A19.07,19.07,0,0,1,137.1,1.45ZM151,6c-.2,1.78-1.76,3.4-4.67,4.88a7.17,7.17,0,0,1-1.56.59,8.63,8.63,0,0,0-1.67.54,3.31,3.31,0,0,0-2.13,3.26v9.66l7.79-3.62A4.52,4.52,0,0,0,151,17.25Z"/><path class="cls-3" d="M194.28,1.45a4.25,4.25,0,0,1,3.32,1.48,4.15,4.15,0,0,1,1.16,3.18V17.25a6.6,6.6,0,0,1-3.29,5.94,1.36,1.36,0,0,1-.24.13l-7.77,3.61a2.39,2.39,0,0,1-.94.19,2.25,2.25,0,0,1-1.16-.32,2.06,2.06,0,0,1-1-1.86V15.28a5.55,5.55,0,0,1,2.29-4.61h-4.23a9.76,9.76,0,0,0-7.2,3,9.85,9.85,0,0,0-3,7.22,9.53,9.53,0,0,0,3,7.09,9.93,9.93,0,0,0,7.2,2.89h8.41a6.95,6.95,0,0,1,7,7v2.27h-15.4a18.92,18.92,0,0,1-13.75-5.58A18.46,18.46,0,0,1,163,20.89a18.76,18.76,0,0,1,5.53-13.61,19.07,19.07,0,0,1,14.21-5.83ZM196.55,6c-.2,1.78-1.75,3.4-4.67,4.88a7.17,7.17,0,0,1-1.56.59,8.87,8.87,0,0,0-1.67.54,3.31,3.31,0,0,0-2.13,3.26v9.66l7.79-3.62a4.52,4.52,0,0,0,2.24-4.07Z"/><path class="cls-4" d="M276.48,1.48a10.82,10.82,0,0,1,8,3.8,12.09,12.09,0,0,1,3.29,8.39,12.25,12.25,0,0,1-3.4,8.57,10.69,10.69,0,0,1-8.2,3.8l-6.31.06V42.55a2.14,2.14,0,0,1-3.26,1.78l-7-4.43a5.44,5.44,0,0,1-1.88-2.24,7.5,7.5,0,0,1-.84-3.47V7.36a5.66,5.66,0,0,1,1.86-4.67,6,6,0,0,1,3.91-1.21h13.83Zm-8.79,15.23a3.31,3.31,0,0,0-1.64-3.15c-1.48-.85-2.62-1.52-3.43-2q-3.31-2.11-3.61-5V34.19a4.68,4.68,0,0,0,1.73,3.91l6.95,4.45Zm7,.57c2.7,0,4-1.21,4-3.61a2.88,2.88,0,0,0-.89-2.16,4.36,4.36,0,0,0-3.21-1.08h-9.82l2.21,1.27a5.28,5.28,0,0,1,2.75,5v.57Z"/><path class="cls-5" d="M316.74,1.42a18.64,18.64,0,0,1,13.67,5.67,18.63,18.63,0,0,1,5.66,13.67,18.68,18.68,0,0,1-5.66,13.7,19.37,19.37,0,0,1-27.37,0,18.65,18.65,0,0,1-5.67-13.7A18.6,18.6,0,0,1,303,7.09,18.64,18.64,0,0,1,316.74,1.42Zm0,29.34a9.52,9.52,0,0,0,7-2.94,9.56,9.56,0,0,0,2.94-7.06A9.61,9.61,0,0,0,324,13.93a7.13,7.13,0,0,1,.22,1.73V24A2.06,2.06,0,0,1,323.07,26a2.08,2.08,0,0,1-2.26-.05l-7.47-4.77a7,7,0,0,1-2.7-5.88v-2.4a9.45,9.45,0,0,0-3.91,7.9,9.56,9.56,0,0,0,2.94,7.06l2.91,2.94Zm-3.86-15.5a4.93,4.93,0,0,0,1.81,4.12L322,24V15.66a3.5,3.5,0,0,0-1.72-3.32c-1.57-.88-2.77-1.59-3.62-2.13a8.79,8.79,0,0,1-3-2.91A5,5,0,0,1,312.88,5Z"/><path class="cls-6" d="M367.88,31.87a6.25,6.25,0,0,1,6.23,6.23v2H350.35a5,5,0,0,1-3.23-1,3.65,3.65,0,0,1-1.38-2.81,1.89,1.89,0,0,1,0-.35V11.1A6.15,6.15,0,0,1,348.09,6a.45.45,0,0,1,.13-.1l6.42-4.1a2,2,0,0,1,1.05-.3,1.94,1.94,0,0,1,.95.24,1.85,1.85,0,0,1,1,1.7v23a4.87,4.87,0,0,1-2.5,4.61c-.56.3-1.08.6-1.57.89Zm-20.2,3.85a3.45,3.45,0,0,0,0,.46Zm0,0v-.16l0-.05V35.4a.14.14,0,0,0,0-.11.2.2,0,0,0,0-.11.18.18,0,0,1,0-.1.36.36,0,0,1,0-.11.23.23,0,0,0,0-.11.31.31,0,0,1,0-.11.4.4,0,0,0,.06-.13s0,0,.05-.11a3.86,3.86,0,0,1,.27-.59l.05-.08a.77.77,0,0,1,.11-.19l.06-.11.13-.19s0-.05.08-.11a1.82,1.82,0,0,0,.14-.19l.08-.1.16-.19s0,0,.08-.08a8.79,8.79,0,0,1,.76-.73c.07-.07.1-.1.1-.08a11.2,11.2,0,0,1,1-.73q1.14-.7,3.18-1.86a3.08,3.08,0,0,0,1.51-2.91v-23l-6.41,4.1a4.29,4.29,0,0,0-1.6,3.61Z"/><path class="cls-7" d="M394.38,15a5.5,5.5,0,0,1,2.86,5.21V42.33a2.06,2.06,0,0,1-1.16,1.94,2.11,2.11,0,0,1-1.05.27,2.18,2.18,0,0,1-1.19-.35l-7.23-4.58-.16-.14a6.93,6.93,0,0,1-2.67-5.8V9.76a4.93,4.93,0,0,1,0-.89c0-.15.05-.28.08-.41v0a6.7,6.7,0,0,1,2.08-5,6.77,6.77,0,0,1,5-2.05h2.32v13C393.64,14.6,394,14.82,394.38,15ZM386,9.16a4.28,4.28,0,0,0,0,.51Zm9,11.06A3.39,3.39,0,0,0,393.3,17a5.15,5.15,0,0,0-.48-.27s0,0-.06-.06l-.37-.21a.69.69,0,0,1-.19-.11l-.25-.14-.13-.08-.14-.08s-.05,0-.1-.05a.18.18,0,0,1-.08-.06,2.74,2.74,0,0,1-.33-.19l-.13-.08-.35-.19-.11-.07a2.71,2.71,0,0,0-.38-.22c.05,0,0,0-.05-.05l-.41-.25q-3.53-2.24-3.75-5.18v24a4.88,4.88,0,0,0,1.81,4.08L395,42.33Z"/><path class="cls-8" d="M98.51,61.23c-3.31.46-6.65.75-10,.93s-6.69.29-10,.32c-6.7.09-13.39-.19-20.08-.56C45,61,31.71,59.48,18.39,56a60.53,60.53,0,0,1-10-3.57,21.47,21.47,0,0,1-5.19-3.31,12.13,12.13,0,0,1-1.32-1.41c-.21-.29-.42-.56-.63-.87s-.38-.72-.56-1.09A5.48,5.48,0,0,1,.22,44.5,5.38,5.38,0,0,1,0,43.11a14.05,14.05,0,0,1,.05-1.45,12.8,12.8,0,0,1,.34-1.32A4.77,4.77,0,0,1,.88,39.2a9.69,9.69,0,0,1,.58-1,15.18,15.18,0,0,1,1.26-1.52c.42-.39.86-.83,1.29-1.16l1.27-1a32.38,32.38,0,0,1,5-2.69,72.52,72.52,0,0,1,9.91-3.45,154.25,154.25,0,0,1,19.89-4,184.55,184.55,0,0,1,20.06-1.68,1,1,0,0,1,.34,2c-6.39,2-12.79,3.81-19.15,5.63S28.67,34,22.56,36.06a87,87,0,0,0-8.8,3.41A30.33,30.33,0,0,0,10,41.52l-.72.54c-.23.17-.36.34-.56.5s-.21.27-.34.39,0,0,0,.07-.06,0,0,0a.13.13,0,0,0,0-.12.27.27,0,0,0,0-.2c0-.07,0-.11,0-.17s-.07-.09,0-.08,0,0,0,0,.08.09.11.14.24.26.37.41a14,14,0,0,0,3.17,2,57.78,57.78,0,0,0,8.63,3.34,187.73,187.73,0,0,0,18.94,4.68C46,54.37,52.47,55.58,59,56.54s13.09,1.93,19.67,2.77S91.84,60.82,98.51,61.23Z"/><path class="cls-9" d="M68.11,34.09c-2.93,1.12-5.9,2.1-8.82,3.1s-5.84,2-8.65,3.05c-1.41.53-2.79,1.08-4.09,1.67-.64.3-1.27.6-1.84.92a8.79,8.79,0,0,0-1.41.94c-.09.07-.12.12-.2.18s0,.06-.07.08.13-.16.21-.67a1.79,1.79,0,0,0-.23-1l0,0,0,0s.07.06.14.11a6.56,6.56,0,0,0,1.39.74c.57.25,1.23.48,1.9.7a80.6,80.6,0,0,0,8.66,2.13c3,.58,6,1.15,9.07,1.66,6.1,1.07,12.25,2,18.4,3.28a1,1,0,0,1,.81,1.21,1.05,1.05,0,0,1-1,.83,164.83,164.83,0,0,1-18.86-.15c-3.14-.22-6.29-.47-9.45-.92A64.83,64.83,0,0,1,44.51,50a21.42,21.42,0,0,1-2.5-.88,12.72,12.72,0,0,1-2.72-1.47,6.29,6.29,0,0,1-.76-.63l-.39-.39a4.3,4.3,0,0,1-.4-.51A4.9,4.9,0,0,1,36.8,43a5.16,5.16,0,0,1,1.06-2.8c.22-.27.47-.57.7-.8s.46-.43.67-.6a14.46,14.46,0,0,1,2.53-1.57,24.52,24.52,0,0,1,2.39-1,46.67,46.67,0,0,1,4.71-1.51,77.64,77.64,0,0,1,9.4-1.85,71.54,71.54,0,0,1,9.49-.74,1,1,0,0,1,.37,2Z"/><path class="cls-10" d="M241.09,18.42C237,10.61,229.45,2.3,227.18,0c-.77-.76-18,18.14-18,27.14a17.36,17.36,0,0,0,14.58,17.11C224.54,32.78,228.82,22.09,241.09,18.42Z"/><path class="cls-11" d="M242,21.51C232.48,21,226.38,34,225,43.91c9.82-.6,15.75-9.45,16.2-18.27,2,26.23-32.51,24.22-32.68,1.86C209.1,57.57,256,48,242,21.51Z"/><path class="cls-12" d="M378,58.8c6.66-.41,13.26-1.14,19.84-1.91S411,55.2,417.49,54.12s13-2.18,19.47-3.46A184.25,184.25,0,0,0,455.89,46a57.9,57.9,0,0,0,8.64-3.33,13.69,13.69,0,0,0,3.17-2.06c.13-.15.35-.32.37-.41s.09-.1.11-.14,0,0,0,0,0,0,0,.09,0,.09,0,.16a.26.26,0,0,0,0,.21.09.09,0,0,0,0,.11c.05,0,0,0,0,0s0,0,0-.08-.16-.23-.34-.39-.33-.32-.56-.5l-.73-.54A28.93,28.93,0,0,0,462.73,37a86.79,86.79,0,0,0-8.79-3.41c-6.11-2.07-12.44-3.86-18.79-5.66S422.39,24.38,416,22.34a1,1,0,0,1,.34-2A182.09,182.09,0,0,1,436.4,22a154.2,154.2,0,0,1,19.89,4,75.32,75.32,0,0,1,9.91,3.45,32,32,0,0,1,5,2.7l1.28,1c.42.33.86.77,1.29,1.16A16.41,16.41,0,0,1,475,35.77c.2.3.4.67.58,1a5.75,5.75,0,0,1,.49,1.14c.13.43.25.87.34,1.31a14,14,0,0,1,0,1.45,8,8,0,0,1-.63,2.65c-.18.37-.37.74-.57,1.1s-.41.57-.63.86a10.07,10.07,0,0,1-1.32,1.41A21.49,21.49,0,0,1,468.16,50a59.89,59.89,0,0,1-10.05,3.56c-13.32,3.47-26.65,5-40,5.91-6.69.37-13.37.66-20.07.56-3.35,0-6.69-.11-10-.32S381.3,59.26,378,58.8Z"/><path class="cls-13" d="M413.21,29.65a71.54,71.54,0,0,1,9.49.74,77.64,77.64,0,0,1,9.4,1.85,46.67,46.67,0,0,1,4.71,1.51,24.52,24.52,0,0,1,2.39,1,14.05,14.05,0,0,1,2.52,1.57c.22.17.46.4.68.61a9.14,9.14,0,0,1,.7.79,5.2,5.2,0,0,1,1.06,2.81,4.89,4.89,0,0,1-.94,3.13c-.13.17-.27.38-.4.52l-.39.38a6.29,6.29,0,0,1-.76.63A12.72,12.72,0,0,1,439,46.71a23.57,23.57,0,0,1-2.5.89,67.52,67.52,0,0,1-9.58,1.94c-3.16.44-6.31.69-9.45.91a162.59,162.59,0,0,1-18.86.15,1,1,0,0,1-.15-2c6.15-1.26,12.3-2.21,18.4-3.28,3.05-.5,6.08-1.07,9.07-1.66a83.06,83.06,0,0,0,8.66-2.12,18.92,18.92,0,0,0,1.9-.71,6.56,6.56,0,0,0,1.39-.74c.07,0,.15-.1.14-.11l0,0s0,0-.05,0a1.74,1.74,0,0,0-.23,1c.08.51.16.63.21.66s0,0-.08-.08-.1-.11-.19-.18a8.79,8.79,0,0,0-1.41-.94c-.57-.32-1.2-.61-1.84-.92-1.3-.59-2.69-1.14-4.09-1.67-2.82-1.06-5.73-2-8.65-3.05s-5.89-2-8.82-3.09h0a1,1,0,0,1,.37-2Z"/></g></g></svg>