<svg xmlns="http://www.w3.org/2000/svg" xmlns:xlink="http://www.w3.org/1999/xlink" viewBox="0 0 443.32 454.05"><defs><style>.cls-1{fill:#fff;opacity:0.7;}.cls-2{fill:url(#Degradado_sin_nombre_29);}.cls-3{fill:url(#Degradado_sin_nombre_41);}</style><linearGradient id="Degradado_sin_nombre_29" x1="196.91" y1="358.47" x2="196.91" y2="166.47" gradientUnits="userSpaceOnUse"><stop offset="0" stop-color="#51a7e2"/><stop offset="1" stop-color="#1453a2"/></linearGradient><linearGradient id="Degradado_sin_nombre_41" x1="203.18" y1="366.43" x2="203.18" y2="259.71" gradientUnits="userSpaceOnUse"><stop offset="0" stop-color="#3fff4c"/><stop offset="1" stop-color="#00a208"/></linearGradient></defs><title>Recurso 2</title><g id="Capa_2" data-name="Capa 2"><g id="Capa_2-2" data-name="Capa 2"><polygon class="cls-1" points="279.09 134.97 127.26 134.97 51.35 266.45 127.26 397.94 279.09 397.94 355 266.45 279.09 134.97"/><polygon class="cls-1" points="84.14 79.98 28.05 79.98 0 128.56 28.05 177.15 84.14 177.15 112.19 128.56 84.14 79.98"/><polygon class="cls-1" points="197.51 0 126.84 0 91.5 61.21 126.84 122.42 197.51 122.42 232.85 61.21 197.51 0"/><polygon class="cls-1" points="364.13 365.43 312.96 365.43 287.38 409.74 312.96 454.05 364.13 454.05 389.71 409.74 364.13 365.43"/><polygon class="cls-1" points="425.17 322.74 388.86 322.74 370.71 354.18 388.86 385.63 425.17 385.63 443.32 354.18 425.17 322.74"/><path class="cls-2" d="M266.16,246.39c-17.88-33.89-50.51-69.95-60.38-79.82-3.31-3.31-78.12,78.68-78.12,117.72a75.18,75.18,0,0,0,63.2,74.18C194.34,308.64,212.89,262.28,266.16,246.39Z"/><path class="cls-3" d="M270.13,259.78c-41.35-2.31-67.8,54.11-73.72,97.13,42.63-2.58,68.33-41,70.31-79.24,8.46,113.77-141,105.08-141.75,8.1C127.37,416.18,330.68,374.53,270.13,259.78Z"/></g></g></svg>