<?xml version="1.0" encoding="utf-8"?>
<svg version="1.1" xmlns:xlink="http://www.w3.org/1999/xlink" width="21px" height="40px" xmlns="http://www.w3.org/2000/svg">
  <g transform="matrix(1 0 0 1 -580 -4081 )">
    <path d="M 15.4583333333333 0  C 17.8402777777778 0  19.6875 0.0961538461538458  21 0.288461538461537  L 21 6.63461538461538  L 17.1840277777778 6.63461538461538  C 15.7905092592593 6.63461538461538  14.8506944444444 6.92307692307693  14.3645833333333 7.5  C 13.8784722222222 8.07692307692307  13.6354166666667 8.94230769230769  13.6354166666667 10.0961538461538  L 13.6354166666667 14.6394230769231  L 20.7569444444444 14.6394230769231  L 19.8090277777778 21.7548076923077  L 13.6354166666667 21.7548076923077  L 13.6354166666667 40  L 6.19791666666667 40  L 6.19791666666667 21.7548076923077  L 0 21.7548076923077  L 0 14.6394230769231  L 6.19791666666667 14.6394230769231  L 6.19791666666667 9.39903846153846  C 6.19791666666667 6.41826923076923  7.04050925925926 4.10657051282051  8.72569444444444 2.46394230769231  C 10.4108796296296 0.821314102564106  12.6550925925926 0  15.4583333333333 0  Z " fill-rule="nonzero" fill="#f2f2f2" stroke="none" transform="matrix(1 0 0 1 580 4081 )" />
  </g>
</svg>