<?xml version="1.0" encoding="utf-8"?>
<svg version="1.1" xmlns:xlink="http://www.w3.org/1999/xlink" width="40px" height="33px" xmlns="http://www.w3.org/2000/svg">
  <g transform="matrix(1 0 0 1 -623 -4085 )">
    <path d="M 35.2791878172589 5.2078125  C 36.8527918781726 5.0359375  38.4263959390863 4.60624999999999  40 3.91875  C 38.8663282571912 5.603125  37.4957698815567 7.03828125  35.8883248730964 8.22421875  C 35.9052453468697 8.46484375  35.9137055837563 8.82578125  35.9137055837563 9.30703125  C 35.9137055837563 11.54140625  35.5922165820643 13.771484375  34.9492385786802 15.997265625  C 34.3062605752961 18.223046875  33.32910321489 20.35859375  32.0177664974619 22.40390625  C 30.7064297800338 24.44921875  29.1455160744501 26.258203125  27.3350253807107 27.830859375  C 25.5245346869712 29.403515625  23.34179357022 30.658203125  20.7868020304569 31.594921875  C 18.2318104906937 32.531640625  15.4991539763113 33  12.5888324873096 33  C 8.00338409475465 33  3.80710659898477 31.75390625  0 29.26171875  C 0.592216582064298 29.33046875  1.25211505922166 29.36484375  1.97969543147208 29.36484375  C 5.78680203045685 29.36484375  9.17935702199662 28.17890625  12.1573604060914 25.80703125  C 10.3807106598985 25.77265625  8.79018612521151 25.218359375  7.38578680203046 24.144140625  C 5.98138747884941 23.069921875  5.01692047377327 21.69921875  4.49238578680203 20.03203125  C 5.0507614213198 20.11796875  5.5668358714044 20.1609375  6.04060913705584 20.1609375  C 6.76818950930626 20.1609375  7.48730964467005 20.06640625  8.19796954314721 19.87734375  C 6.30287648054146 19.48203125  4.73350253807107 18.523828125  3.48984771573604 17.002734375  C 2.24619289340102 15.481640625  1.6243654822335 13.715625  1.6243654822335 11.7046875  L 1.6243654822335 11.6015625  C 2.77495769881557 12.2546875  4.01015228426396 12.60703125  5.32994923857868 12.65859375  C 4.21319796954315 11.90234375  3.3248730964467 10.9140625  2.66497461928934 9.69375  C 2.00507614213198 8.47343749999999  1.6751269035533 7.15  1.6751269035533 5.7234375  C 1.6751269035533 4.2109375  2.04737732656514 2.81015625  2.79187817258883 1.52109375  C 4.83925549915398 4.08203125  7.33079526226734 6.131640625  10.2664974619289 7.669921875  C 13.2021996615905 9.208203125  16.3451776649746 10.06328125  19.6954314720812 10.23515625  C 19.5600676818951 9.58203125  19.492385786802 8.94609375  19.492385786802 8.32734375  C 19.492385786802 6.02421874999999  20.2918781725888 4.060546875  21.8908629441624 2.436328125  C 23.489847715736 0.812109375000001  25.4230118443316 0  27.6903553299492 0  C 30.0592216582064 0  32.0558375634518 0.876562500000001  33.6802030456853 2.6296875  C 35.5245346869712 2.26875  37.258883248731 1.5984375  38.8832487309645 0.618750000000001  C 38.2571912013536 2.5953125  37.0558375634518 4.125  35.2791878172589 5.2078125  Z " fill-rule="nonzero" fill="#f2f2f2" stroke="none" transform="matrix(1 0 0 1 623 4085 )" />
  </g>
</svg>