<?xml version="1.0" encoding="utf-8"?>
<!-- Generator: Adobe Illustrator 23.0.6, SVG Export Plug-In . SVG Version: 6.00 Build 0)  -->
<svg version="1.1" id="Capa_1" xmlns="http://www.w3.org/2000/svg" xmlns:xlink="http://www.w3.org/1999/xlink" x="0px" y="0px"
	 viewBox="0 0 267.4 156" style="enable-background:new 0 0 267.4 156;" xml:space="preserve">
<style type="text/css">
	.st0{fill:none;stroke:#000000;stroke-miterlimit:10;}
</style>
<path class="st0" d="M24.7,121.9c0,0,9.6-0.3,15.3-2.1c5.7-1.8,8.3-5.2,8.3-5.2s9.1-8,13.5-7.8c4.4,0.3,14.8-5.4,14.8-5.4
	s1.3-2.3,16.1-3.6s14-3.1,14-3.1"/>
<path class="st0" d="M10.4,122.1c0,0,21.5-4.9,25.9-7.8c4.4-2.9,16.3-10.1,21-10.6c4.7-0.5,22.3-9.9,22.3-9.9s28.8-2.6,38.4,1
	c9.6,3.6,24.1,1.6,24.1,1.6s6.7,0.8,14,4.7c7.3,3.9,8.6,4.4,8.6,4.4s4.1,0.8,7,2.1s7.8,1,7.8,1s21,8.3,28.5,11.1
	c7.5,2.9,24.4,2.9,24.4,2.9l7,2.1l2.9-1.8l2.6-0.3c0,0,6.2,1,10.4,0.8"/>
<path class="st0" d="M122.7,99c0,0,14,10.9,18.1,12.2c4.1,1.3,18.4,9.9,18.4,9.9s7,5.4,13.2,6.7c6.2,1.3,6.2,1.3,6.2,1.3h2.6
	l2.9,1.6l6.5-0.3c0,0,10.4,0.5,11.1,1.8"/>
<path class="st0" d="M131,97.9c0,0,2.5,3,5.3,3c2.8,0,9.5,0.3,9.5,0.3s3.8-0.3,4.5,1.6"/>
<path class="st0" d="M154,103.4c0,0,22.1,11.4,26.4,12.7"/>
<path class="st0" d="M161.1,102.8c0,0,36.1-3.8,46.9-2.6c10.8,1.2,12.4,1.8,12.4,1.8l12.4,6.1l3.8,0.7c0,0,13.2,6.4,15.9,6"/>
<path class="st0" d="M173.4,107.1c0,0,28.2-3.9,34.9-5.6"/>
<path class="st0" d="M157.8,43.6c0,5.1-3.7,8-8.8,8c-2.6,0-4.8-0.6-6.4-2.3c-1.7-1.7-2.3-3.7-2.3-6.2c0-2.6,1.3-4.5,2.9-6.2
	c1.7-1.7,3.4-1.6,6-1.6C154.3,35.1,157.8,38.4,157.8,43.6z"/>
<polygon class="st0" points="200,44.2 202.6,44.1 203.7,40.8 204.7,45 208.9,44.8 205.1,47.2 206.2,50 203.7,47.5 199.7,49.5 
	201.7,46 "/>
<polygon class="st0" points="186.3,66.4 186.7,65.2 187.2,66.9 189.4,67.2 187.3,68 186.2,69.9 185.8,68.1 184.2,67.3 "/>
<polygon class="st0" points="222.4,92.6 221.5,91.1 222.7,91.3 223.9,89 224.2,91.6 226.9,91.9 224.7,92.8 225.5,95.4 223.6,93.8 
	220.8,95 "/>
<polygon class="st0" points="117.4,69.7 118.5,67.7 118.6,69.7 120.3,69.9 118.8,70.3 118,71.8 117.5,70.6 115.8,70.3 "/>
<polygon class="st0" points="139.8,85.7 140.7,84.2 141.4,85.7 143.2,86.4 141.5,87.2 142.6,89.1 140.9,88.3 138.7,89.1 139.2,87.6 
	137.8,86.5 "/>
<polygon class="st0" points="103,23.6 100.2,22 104.2,21.7 105.2,16.8 105.8,21.5 110.4,22.5 107.1,23.4 108.8,27.6 105,25.1 
	100.7,27.6 "/>
<polygon class="st0" points="67.2,49.4 67.4,48.1 68.2,49.5 69.9,49.9 68.3,50.6 67.6,52.1 66.9,50.7 65.2,50.3 "/>
<polygon class="st0" points="56.9,75.6 57.6,73.3 59,75.9 61.9,76 58.7,77.2 59.2,80.3 57.5,78.5 54.4,80 56,77.3 53.9,75.6 "/>
<polygon class="st0" points="34.3,98.1 34.9,96.4 35.2,98.3 37.3,98.6 35.1,100.2 34.5,101.8 33.9,100 32.1,98.9 "/>
</svg>
