<?xml version="1.0" encoding="utf-8"?>
<!-- Generator: Adobe Illustrator 23.0.6, SVG Export Plug-In . SVG Version: 6.00 Build 0)  -->
<svg version="1.1" id="Capa_1" xmlns="http://www.w3.org/2000/svg" xmlns:xlink="http://www.w3.org/1999/xlink" x="0px" y="0px"
	 viewBox="0 0 267.4 156" style="enable-background:new 0 0 267.4 156;" xml:space="preserve">
<g>
	<path d="M24.7,121.9c2.1-0.1,4.2-0.3,6.3-0.6c2.1-0.3,4.2-0.6,6.2-1.1c2.1-0.4,4-1.1,5.9-2.1c1.8-1,3.6-2.2,4.8-3.8l0,0l0,0
		c2-1.8,4.1-3.4,6.3-4.9c1.1-0.7,2.3-1.4,3.5-2c1.2-0.6,2.5-1.1,4-1.1c1.2,0,2.5-0.3,3.7-0.7c1.2-0.4,2.5-0.8,3.7-1.3
		c2.4-1,4.8-2.1,7.1-3.4l-0.2,0.2c0.1-0.2,0.2-0.2,0.3-0.3c0.1-0.1,0.2-0.1,0.2-0.2c0.2-0.1,0.3-0.2,0.5-0.3
		c0.3-0.2,0.6-0.3,0.9-0.4c0.6-0.3,1.3-0.5,1.9-0.6c1.3-0.4,2.6-0.6,3.9-0.9c2.6-0.4,5.2-0.7,7.8-0.9c2.6-0.2,5.2-0.4,7.8-0.7
		c1.3-0.2,2.6-0.4,3.8-0.6c0.6-0.1,1.3-0.3,1.9-0.5c0.3-0.1,0.6-0.2,0.9-0.4c0.3-0.2,0.6-0.3,0.6-0.7c0,0.3-0.4,0.5-0.6,0.7
		c-0.3,0.2-0.6,0.3-0.9,0.4c-0.6,0.2-1.2,0.4-1.9,0.6c-1.3,0.3-2.6,0.6-3.8,0.8c-2.6,0.4-5.2,0.7-7.8,1c-2.6,0.3-5.2,0.6-7.7,1.1
		c-1.3,0.3-2.5,0.5-3.8,0.9c-0.6,0.2-1.2,0.4-1.8,0.6c-0.3,0.1-0.6,0.3-0.8,0.4c-0.1,0.1-0.3,0.2-0.4,0.2c-0.1,0-0.1,0.1-0.2,0.1
		c0,0-0.1,0.1-0.1,0.1l-0.2,0.2c-2.3,1.3-4.7,2.4-7.2,3.5c-1.2,0.5-2.5,1-3.8,1.4c-1.3,0.4-2.6,0.7-4.1,0.7c-1.2,0-2.4,0.4-3.6,1
		c-1.2,0.6-2.3,1.2-3.4,1.9c-2.2,1.4-4.3,3-6.3,4.7l0.1-0.1c-1.5,1.7-3.3,2.9-5.2,3.9c-1.9,1-4,1.6-6.1,2c-2.1,0.4-4.2,0.7-6.3,0.8
		C28.9,121.7,26.8,121.9,24.7,121.9z"/>
</g>
<g>
	<path d="M10.4,122.1c6.1-1.5,12.2-3,18.1-4.9c1.5-0.5,3-1,4.4-1.5c0.7-0.3,1.4-0.6,2.2-0.9c0.7-0.3,1.3-0.7,2-1.2
		c2.6-1.7,5.3-3.3,8.1-4.9c2.7-1.5,5.5-3,8.4-4.2c0.7-0.3,1.5-0.6,2.3-0.8c0.4-0.1,0.8-0.2,1.2-0.3l1.1-0.2c1.5-0.4,2.9-1,4.4-1.5
		c5.8-2.4,11.4-5.3,16.9-8.2l0.1,0l0.1,0c5.2-0.5,10.5-0.7,15.7-0.9c5.3-0.1,10.5-0.1,15.8,0.4c2.6,0.3,5.3,0.8,7.8,1.7
		c2.4,0.8,5,1.3,7.6,1.5c5.2,0.5,10.4,0.3,15.6-0.3l0.1,0l0,0c2.1,0.3,4.1,0.8,6,1.4c2,0.6,3.9,1.3,5.8,2.2c1.9,0.9,3.6,1.9,5.4,2.8
		c1.8,0.9,3.6,1.9,5.4,2.8l-0.1,0c1.3,0.3,2.5,0.6,3.7,0.9c1.2,0.4,2.5,0.8,3.6,1.3c1.1,0.5,2.4,0.7,3.6,0.8
		c1.2,0.1,2.5,0.2,3.7,0.1l0.1,0l0.1,0l25.7,10.1c1.1,0.4,2.1,0.9,3.2,1.2c1.1,0.4,2.2,0.7,3.3,0.9c2.2,0.5,4.5,0.8,6.8,1.1
		c4.6,0.5,9.2,0.8,13.8,0.8l0,0l0,0l7,2.1l-0.1,0l2.9-1.8l0,0l0,0l2.6-0.2l0,0l0,0c1.7,0.3,3.4,0.5,5.2,0.7c1.7,0.2,3.5,0.3,5.2,0.2
		c-1.7,0.1-3.5,0-5.2-0.1c-1.7-0.1-3.5-0.3-5.2-0.6l0,0l-2.6,0.3l0,0l-2.8,1.8l0,0l-0.1,0l-7-2l0.1,0c-4.6,0-9.2-0.2-13.8-0.7
		c-2.3-0.2-4.6-0.6-6.9-1c-1.1-0.2-2.3-0.5-3.4-0.9c-1.1-0.4-2.2-0.8-3.2-1.2l-25.8-10l0.2,0c-1.3,0.1-2.6,0-3.9-0.1
		c-1.3-0.1-2.6-0.3-3.8-0.8c-1.2-0.5-2.3-0.9-3.5-1.3c-1.2-0.3-2.4-0.6-3.7-0.9l0,0l0,0c-1.9-0.9-3.7-1.8-5.5-2.8
		c-1.8-0.9-3.6-1.9-5.4-2.8c-1.8-0.8-3.7-1.5-5.7-2.1c-1.9-0.6-3.9-1.1-5.9-1.3l0.1,0c-5.3,0.7-10.5,0.8-15.8,0.3
		c-2.6-0.3-5.3-0.8-7.8-1.6c-2.5-0.9-5-1.4-7.6-1.7c-5.2-0.5-10.4-0.6-15.7-0.5c-5.2,0.1-10.5,0.4-15.7,0.8l0.1,0
		c-5.6,2.9-11.2,5.7-17,8.1c-1.5,0.6-2.9,1.2-4.5,1.5l-1.2,0.2c-0.4,0.1-0.7,0.1-1.1,0.2c-0.7,0.2-1.5,0.5-2.2,0.7
		c-2.9,1.2-5.7,2.6-8.4,4.1c-2.7,1.5-5.4,3.1-8.1,4.8c-0.6,0.4-1.3,0.8-2.1,1.2c-0.7,0.3-1.5,0.6-2.2,0.9c-1.5,0.5-3,1-4.5,1.5
		C22.6,119.3,16.5,120.7,10.4,122.1z"/>
</g>
<g>
	<path d="M122.7,99c2.9,2.1,5.8,4.2,8.7,6.2c1.5,1,2.9,2,4.5,2.9c1.5,0.9,3,1.9,4.6,2.5c1.7,0.6,3.4,1.3,4.9,2.1
		c1.6,0.8,3.2,1.7,4.7,2.5c3.1,1.7,6.2,3.5,9.3,5.3l0,0l0,0c2.8,2.1,5.8,4,9,5.4c1.6,0.7,3.2,1.2,5,1.5l5.2,1.1l-0.1,0l2.6,0l0.1,0
		l0.1,0l2.8,1.6l-0.2,0l6.5-0.2l0,0l0,0c1.9,0.1,3.8,0.3,5.7,0.6c0.9,0.1,1.9,0.3,2.8,0.5c0.5,0.1,0.9,0.2,1.4,0.4
		c0.4,0.2,0.9,0.3,1.2,0.7c-0.3-0.4-0.8-0.5-1.3-0.6c-0.5-0.1-0.9-0.2-1.4-0.3c-0.9-0.2-1.9-0.3-2.8-0.3c-1.9-0.2-3.8-0.3-5.7-0.4
		l0,0l-6.5,0.3l-0.1,0l-0.1,0l-2.9-1.5l0.2,0l-2.6,0l0,0l0,0l-5.2-1.1c-1.7-0.3-3.5-0.8-5.2-1.6c-1.7-0.7-3.3-1.5-4.8-2.4
		c-1.5-0.9-3-1.9-4.5-3l0,0c-3-1.8-6.1-3.6-9.2-5.4c-1.6-0.9-3.1-1.7-4.7-2.5c-1.6-0.8-3.1-1.6-4.8-2.2c-1.7-0.7-3.2-1.7-4.7-2.7
		c-1.5-1-3-2-4.4-3.1C128.3,103.5,125.4,101.3,122.7,99z"/>
</g>
<g>
	<path d="M131,97.9c1,0.9,2.1,1.6,3.2,2.1c0.6,0.2,1.2,0.4,1.8,0.4c0.6,0,1.3,0,1.9,0c2.6,0,5.3,0.1,7.9,0.3l0,0
		c0.9,0,1.7,0.1,2.6,0.4c0.4,0.1,0.8,0.3,1.2,0.6c0.4,0.3,0.6,0.6,0.7,1c-0.4-0.8-1.2-1.1-2-1.2c-0.8-0.1-1.6-0.1-2.4-0.1l0,0l0,0
		c-2.6,0-5.2,0-7.9-0.2c-0.7,0-1.3-0.1-2-0.1c-0.7-0.1-1.4-0.3-2-0.7C132.7,99.9,131.7,99,131,97.9z"/>
</g>
<g>
	<path d="M154,103.4c2.3,0.9,4.5,2,6.7,3c2.2,1,4.4,2.1,6.6,3.2c2.2,1.1,4.4,2.2,6.5,3.3c1.1,0.6,2.2,1.1,3.3,1.7
		c1.1,0.6,2.2,1.1,3.3,1.6c-2.4-0.6-4.6-1.6-6.9-2.6c-2.3-1-4.5-2-6.6-3.1c-2.2-1.1-4.4-2.2-6.5-3.4
		C158.2,105.9,156.1,104.7,154,103.4z"/>
</g>
<g>
	<path d="M161.1,102.8c4.9-0.6,9.8-1.2,14.8-1.7c4.9-0.5,9.9-0.9,14.8-1.2c5-0.3,9.9-0.5,14.9-0.4c2.5,0.1,5,0.5,7.4,0.8l3.7,0.5
		c1.2,0.2,2.4,0.4,3.7,0.7l0,0l0,0c4.1,2.1,8.2,4.1,12.3,6.2l-0.1,0l3.8,0.7l0,0l0,0c2.6,1.3,5.1,2.5,7.7,3.6c1.3,0.6,2.6,1.1,4,1.6
		c1.3,0.5,2.7,1,4.1,1c-0.7,0.1-1.4-0.1-2.1-0.3c-0.7-0.2-1.4-0.4-2.1-0.6c-1.4-0.4-2.7-0.9-4-1.5c-2.7-1-5.3-2.2-7.9-3.4l0.1,0
		l-3.8-0.6l0,0l0,0c-4.2-2-8.3-4-12.4-6l0.1,0c-2.3-0.5-4.8-0.8-7.3-1.1c-2.5-0.3-4.9-0.6-7.4-0.8c-4.9-0.2-9.9,0-14.8,0.3
		c-4.9,0.3-9.9,0.5-14.8,0.9L161.1,102.8z"/>
</g>
<g>
	<path d="M173.4,107.1c2.9-0.6,5.8-1.1,8.7-1.6c2.9-0.5,5.8-1,8.7-1.4c2.9-0.4,5.8-0.9,8.7-1.3l4.4-0.6c1.5-0.2,2.9-0.4,4.4-0.6
		c-2.8,0.9-5.7,1.4-8.6,2c-2.9,0.6-5.8,1-8.7,1.5c-2.9,0.4-5.8,0.9-8.8,1.2C179.3,106.6,176.3,106.9,173.4,107.1z"/>
</g>
<g>
	<path d="M157.8,43.6c0,2.2-0.8,4.6-2.6,6.1c-1.7,1.5-4.1,2.1-6.4,2.2c-1.1,0-2.3-0.1-3.4-0.4c-1.1-0.3-2.2-0.9-3.1-1.8
		c-0.9-0.8-1.6-1.8-2-3c-0.4-1.1-0.5-2.3-0.6-3.5c0-1.2,0.3-2.4,0.8-3.5c0.5-1.1,1.3-2,2.1-2.9c0.8-0.9,1.9-1.6,3.1-1.8
		c1.2-0.2,2.3-0.1,3.5-0.1c2.3,0.1,4.6,0.8,6.3,2.5C157.1,39,157.8,41.3,157.8,43.6z M157.8,43.6c0-2.2-0.8-4.6-2.4-6.1
		c-1.7-1.5-4-2.1-6.2-2.1c-1.1,0-2.3,0-3.3,0.3c-1,0.3-1.9,0.9-2.6,1.7c-1.5,1.6-2.5,3.6-2.5,5.7c0,2.2,0.6,4.3,2.1,5.9
		c1.5,1.6,3.7,2.3,5.9,2.3c2.2,0.1,4.5-0.4,6.3-1.8c0.9-0.7,1.6-1.6,2-2.7C157.6,45.8,157.8,44.7,157.8,43.6z"/>
</g>
<g>
	<path d="M200,44.2c0.8-0.1,1.7-0.2,2.7-0.2l-0.1,0.1c0.3-1.1,0.6-2.2,0.9-3.3l0.3-1l0.3,1l1.1,4.2l-0.4-0.3l4.2-0.2l1.8-0.1l-1.5,1
		l-3.7,2.4l0.2-0.6l1.1,2.8l0.8,2.2l-1.6-1.7l-2.5-2.5l0.5,0.1c-1.3,0.7-2.7,1.3-4.1,1.9l-0.9,0.4l0.5-0.9c0.7-1.2,1.4-2.3,2.2-3.5
		l0,0.2C201,45.4,200.5,44.7,200,44.2z M200,44.2c0.7,0.6,1.3,1.1,1.9,1.7l0.1,0.1l-0.1,0.1c-0.6,1.2-1.2,2.4-1.9,3.6l-0.4-0.4
		c1.3-0.7,2.6-1.5,3.9-2.2l0.3-0.1l0.2,0.2l2.5,2.5l-0.8,0.5l-1.1-2.8l-0.1-0.4l0.3-0.2l3.7-2.4l0.3,0.9l-4.2,0.1l-0.4,0l-0.1-0.3
		l-0.9-4.2l0.6,0c-0.4,1.1-0.8,2.2-1.2,3.2l0,0.1l-0.1,0C201.8,44.2,200.9,44.2,200,44.2z"/>
</g>
<g>
	<path d="M186.3,66.4c0.1-0.4,0.2-0.8,0.3-1.2l0.1-0.5l0.2,0.5c0.2,0.6,0.4,1.1,0.6,1.7l-0.3-0.2c0.7,0.1,1.5,0.1,2.2,0.2l1.8,0.2
		l-1.7,0.7c-0.7,0.3-1.4,0.5-2.1,0.8l0.3-0.2c-0.4,0.6-0.8,1.3-1.1,1.9l-0.6,1.1l-0.2-1.2c-0.1-0.6-0.3-1.2-0.4-1.8l0.2,0.3
		c-0.5-0.3-1.1-0.5-1.6-0.8l-0.6-0.3l0.6-0.2C184.8,66.9,185.5,66.6,186.3,66.4z M186.3,66.4c-0.6,0.4-1.3,0.8-2,1.2l0-0.5
		c0.6,0.2,1.1,0.4,1.7,0.6l0.2,0.1l0.1,0.2c0.2,0.6,0.4,1.2,0.5,1.8l-0.9-0.1c0.4-0.6,0.7-1.3,1.1-1.9l0.1-0.2l0.2-0.1
		c0.7-0.2,1.4-0.5,2.1-0.7l0.1,0.9c-0.7-0.1-1.5-0.3-2.2-0.4l-0.2,0l0-0.2c-0.1-0.6-0.2-1.2-0.3-1.8l0.3,0
		C186.7,65.7,186.5,66,186.3,66.4z"/>
</g>
<g>
	<path d="M222.4,92.6l-1-1.5l-0.2-0.3l0.3,0l1.2,0.1l-0.3,0.1c0.4-0.8,0.7-1.6,1.1-2.3l0.5-1l0.2,1.2c0.1,0.9,0.2,1.7,0.4,2.6
		l-0.4-0.4c0.9,0.1,1.8,0.1,2.7,0.2l1.9,0.2l-1.7,0.8c-0.7,0.3-1.4,0.6-2.2,0.9l0.3-0.6c0.3,0.9,0.5,1.7,0.8,2.6l0.4,1.4l-1.1-0.9
		c-0.6-0.5-1.3-1.1-1.9-1.6l0.4,0.1c-0.9,0.3-1.8,0.7-2.8,1l-0.7,0.3l0.5-0.6L222.4,92.6z M222.4,92.6c-0.4,0.8-0.9,1.6-1.3,2.5
		l-0.3-0.3c0.9-0.4,1.8-0.9,2.7-1.3l0.2-0.1l0.2,0.1c0.7,0.5,1.3,1,2,1.5l-0.7,0.5c-0.3-0.9-0.6-1.7-0.8-2.6l-0.1-0.4l0.4-0.2
		c0.7-0.3,1.4-0.6,2.2-0.9l0.1,0.9c-0.9-0.1-1.8-0.2-2.7-0.3l-0.4,0l0-0.4c-0.1-0.9-0.1-1.7-0.2-2.6l0.7,0.1
		c-0.4,0.7-0.9,1.5-1.4,2.2l-0.1,0.2l-0.2,0l-1.2-0.3l0.2-0.2C221.9,91.5,222.1,92.1,222.4,92.6z"/>
</g>
<g>
	<path d="M117.4,69.7c0.3-0.8,0.5-1.5,0.8-2.2l0.4-0.9l0.2,1.1c0.1,0.7,0.2,1.3,0.2,2l-0.4-0.4c0.6,0.1,1.2,0.1,1.7,0.2l2.4,0.3
		l-2.3,0.6c-0.5,0.1-1.1,0.3-1.6,0.4l0.3-0.3c-0.3,0.5-0.5,1-0.8,1.5l-0.5,0.9l-0.3-0.9c-0.1-0.4-0.3-0.8-0.4-1.2l0.3,0.2
		c-0.6-0.1-1.1-0.3-1.7-0.4l-0.9-0.2l0.8-0.2C116.3,70,116.8,69.8,117.4,69.7z M117.4,69.7c-0.5,0.3-1,0.6-1.5,0.9l0-0.5
		c0.6,0,1.1,0.1,1.7,0.2l0.2,0l0.1,0.2c0.2,0.4,0.3,0.8,0.5,1.2l-0.8,0c0.2-0.5,0.5-1,0.8-1.6l0.1-0.2l0.2-0.1
		c0.5-0.1,1.1-0.3,1.6-0.4l0,1c-0.6-0.1-1.1-0.2-1.7-0.3l-0.4-0.1l0-0.3c0-0.7,0-1.3,0-2l0.6,0.1C118.3,68.5,117.9,69.1,117.4,69.7z
		"/>
</g>
<g>
	<path d="M139.8,85.7c0.2-0.6,0.5-1.1,0.7-1.6l0.1-0.3l0.2,0.3c0.3,0.5,0.6,1,0.8,1.5l-0.2-0.2c0.6,0.2,1.3,0.4,1.9,0.6l1,0.3
		l-0.9,0.5l-1.7,0.8l0.2-0.7l1.1,1.9l0.9,1.5l-1.5-0.8l-1.7-0.9l0.4,0c-0.7,0.3-1.5,0.6-2.2,0.8l-0.9,0.3l0.4-0.9l0.6-1.5l0.1,0.4
		c-0.5-0.4-0.9-0.8-1.4-1.2l-0.3-0.3l0.4-0.1C138.4,86.1,139.1,85.9,139.8,85.7z M139.8,85.7c-0.6,0.3-1.3,0.7-1.9,1l0.1-0.4
		c0.5,0.3,1,0.7,1.5,1l0.2,0.1l-0.1,0.3l-0.5,1.6l-0.6-0.5c0.7-0.3,1.5-0.6,2.2-0.9l0.2-0.1l0.2,0.1l1.7,0.9l-0.7,0.7l-1.1-1.9
		l-0.3-0.5l0.5-0.2l1.8-0.7l0,0.8c-0.6-0.3-1.2-0.5-1.8-0.8l-0.1-0.1l0-0.1c-0.2-0.5-0.4-1.1-0.6-1.6l0.3,0
		C140.5,84.8,140.2,85.2,139.8,85.7z"/>
</g>
<g>
	<path d="M103,23.6l-2.9-1.4l-0.5-0.2l0.5-0.1c1.3-0.1,2.7-0.3,4-0.4l-0.3,0.2l0.8-4.9l0.4-2.6l0.4,2.6l0.7,4.7l-0.4-0.4l4.6,0.9
		l2.1,0.4l-2,0.5l-3.3,0.9l0.3-0.6l1.6,4.2l0.5,1.3l-1.2-0.8c-1.3-0.9-2.5-1.7-3.7-2.6l0.4,0c-1.5,0.8-2.9,1.6-4.4,2.4l-0.7,0.4
		l0.4-0.7L103,23.6z M103,23.6l-2.1,4.1l-0.3-0.3c1.4-0.9,2.8-1.8,4.2-2.7l0.2-0.1l0.2,0.1c1.3,0.8,2.6,1.6,3.8,2.5l-0.7,0.5
		l-1.7-4.2l-0.2-0.5l0.5-0.1l3.2-0.9l0,1l-4.6-1l-0.3-0.1l0-0.3l-0.6-4.7l0.8,0l-1.1,4.9l0,0.2l-0.2,0c-1.3,0.1-2.7,0.1-4,0.1
		l0.1-0.3L103,23.6z"/>
</g>
<g>
	<path d="M67.2,49.4c0-0.5,0-1,0-1.4l0-0.6l0.4,0.5c0.3,0.4,0.6,0.9,0.9,1.4l-0.2-0.2c0.6,0.1,1.1,0.2,1.7,0.3l1.3,0.2l-1.2,0.6
		c-0.5,0.3-1.1,0.5-1.6,0.8l0.2-0.2c-0.2,0.5-0.5,1-0.7,1.5l-0.4,0.9l-0.4-0.9c-0.2-0.5-0.4-1-0.6-1.4l0.3,0.2
		c-0.6-0.2-1.1-0.3-1.7-0.5l-0.9-0.3l0.8-0.2C65.8,49.8,66.4,49.6,67.2,49.4z M67.2,49.4c-0.6,0.4-1.2,0.7-1.9,1.1l0-0.6
		c0.6,0.1,1.2,0.2,1.7,0.3l0.2,0l0.1,0.2c0.2,0.5,0.5,0.9,0.7,1.4l-0.9,0c0.2-0.5,0.4-1,0.7-1.5l0.1-0.2l0.2-0.1
		c0.5-0.2,1.1-0.5,1.6-0.7l0.1,0.9c-0.6-0.1-1.1-0.3-1.7-0.4L68,49.8l-0.1-0.1c-0.2-0.5-0.5-1-0.7-1.5l0.4-0.1
		C67.5,48.6,67.4,49,67.2,49.4z"/>
</g>
<g>
	<path d="M56.9,75.6l0.6-2.3l0.1-0.4l0.2,0.3c0.5,0.8,1,1.7,1.5,2.5L59,75.6l2.9,0l2.3,0l-2.1,0.8l-3.3,1.3l0.3-0.5l0.6,3.1l0.3,1.6
		l-1.2-1.2l-1.8-1.8l0.6,0.1c-1,0.5-2.1,1-3.1,1.5l-1.3,0.7l0.8-1.3c0.5-0.9,1.1-1.8,1.7-2.6l0.1,0.4c-0.7-0.6-1.4-1.2-2-1.9
		l-0.4-0.4l0.5,0L56.9,75.6z M56.9,75.6c-0.9,0.1-2,0.1-3,0.2l0.1-0.4c0.7,0.5,1.4,1.1,2.2,1.7l0.2,0.2l-0.1,0.2
		c-0.5,0.9-1,1.8-1.5,2.7l-0.6-0.6c1-0.5,2-1.1,3-1.6l0.3-0.2l0.3,0.2l1.8,1.8l-0.8,0.4l-0.6-3.1l-0.1-0.4l0.4-0.1l3.3-1.1l0.1,0.8
		L59,76.2l-0.2,0l-0.1-0.1c-0.4-0.9-0.9-1.8-1.3-2.7l0.3,0C57.5,74.1,57.2,74.9,56.9,75.6z"/>
</g>
<g>
	<path d="M34.3,98.1c0.2-0.6,0.3-1.2,0.5-1.8l0.2-0.8l0.2,0.8c0.2,0.6,0.3,1.3,0.4,1.9L35.3,98c0.7,0.1,1.4,0.1,2.1,0.2l1.1,0.1
		L37.6,99c-0.7,0.6-1.4,1.1-2.1,1.6l0.2-0.2l-0.7,1.6l-0.5,1.3L34,102c-0.2-0.6-0.3-1.2-0.5-1.8l0.2,0.2c-0.6-0.4-1.2-0.8-1.7-1.2
		l-0.5-0.3l0.5-0.1C32.7,98.5,33.5,98.3,34.3,98.1z M34.3,98.1c-0.6,0.4-1.4,0.7-2.1,1.1l0-0.5c0.6,0.3,1.3,0.6,1.9,1l0.1,0.1
		l0.1,0.2c0.2,0.6,0.4,1.2,0.6,1.8l-0.9,0l0.7-1.6l0.1-0.1l0.1-0.1c0.7-0.5,1.4-1,2.2-1.5l0.2,0.8c-0.7-0.1-1.4-0.2-2-0.4l-0.3-0.1
		l0-0.2c-0.1-0.6-0.1-1.3-0.1-1.9l0.4,0C34.8,97,34.6,97.6,34.3,98.1z"/>
</g>
</svg>
