<svg id="Capa_1" data-name="Capa 1" xmlns="http://www.w3.org/2000/svg" viewBox="0 0 244.81 117.11"><defs><style>.cls-1{fill:none;stroke:#1d1d1b;stroke-miterlimit:10;stroke-width:0.5px;}</style></defs><title>luna</title><path class="cls-1" d="M24.67,121.86s9.6-.26,15.3-2.07a17.75,17.75,0,0,0,8.3-5.19s9.07-8,13.48-7.78,14.77-5.44,14.77-5.44,1.3-2.33,16.08-3.63,14-3.11,14-3.11" transform="translate(-10.36 -15.25)"/><path class="cls-1" d="M10.41,122.12s21.52-4.93,25.93-7.78,16.33-10.11,21-10.63,22.3-9.85,22.3-9.85,28.77-2.59,38.36,1,24.12,1.55,24.12,1.55a43.53,43.53,0,0,1,14,4.67c7.26,3.89,8.56,4.41,8.56,4.41a37.32,37.32,0,0,1,7,2.07c2.85,1.3,7.78,1,7.78,1s21,8.29,28.52,11.15,24.37,2.85,24.37,2.85l7,2.07,2.86-1.81,2.59-.26a57.74,57.74,0,0,0,10.37.78" transform="translate(-10.36 -15.25)"/><path class="cls-1" d="M122.67,99.05s14,10.89,18.15,12.18,18.41,9.85,18.41,9.85,7,5.45,13.22,6.74l6.22,1.3h2.59l2.85,1.56,6.49-.26s10.37.51,11.14,1.81" transform="translate(-10.36 -15.25)"/><path class="cls-1" d="M131,97.91s2.55,3,5.32,3,9.5.3,9.5.3,3.8-.27,4.46,1.61" transform="translate(-10.36 -15.25)"/><path class="cls-1" d="M154,103.43s22.14,11.43,26.38,12.73" transform="translate(-10.36 -15.25)"/><path class="cls-1" d="M161.15,102.75s36.09-3.81,46.85-2.58,12.39,1.77,12.39,1.77l12.4,6.12,3.81.69s13.21,6.4,15.94,6" transform="translate(-10.36 -15.25)"/><path class="cls-1" d="M173.41,107.11s28.19-4,34.86-5.58" transform="translate(-10.36 -15.25)"/><path class="cls-1" d="M157.78,43.56c0,5.11-3.67,8-8.79,8a8.62,8.62,0,0,1-6.43-2.3A8.1,8.1,0,0,1,140.29,43a8.69,8.69,0,0,1,2.93-6.23c1.68-1.67,3.39-1.65,5.95-1.65C154.29,35.13,157.78,38.44,157.78,43.56Z" transform="translate(-10.36 -15.25)"/><polygon class="cls-1" points="189.6 28.92 192.27 28.83 193.33 25.54 194.31 29.72 198.5 29.55 194.76 31.95 195.82 34.71 193.33 32.22 189.33 34.26 191.38 30.7 189.6 28.92"/><polygon class="cls-1" points="175.93 51.14 176.38 49.98 176.84 51.7 179.06 52 176.99 52.71 175.88 54.63 175.42 52.81 173.8 52.1 175.93 51.14"/><polygon class="cls-1" points="212 77.38 211.13 75.81 212.32 76.02 213.57 73.74 213.84 76.35 216.5 76.62 214.33 77.54 215.15 80.15 213.19 78.57 210.48 79.71 212 77.38"/><polygon class="cls-1" points="107.06 54.46 108.15 52.43 108.25 54.41 109.98 54.66 108.39 55.05 107.6 56.59 107.16 55.4 105.48 55.1 107.06 54.46"/><polygon class="cls-1" points="129.47 70.43 130.31 68.95 131 70.48 132.88 71.18 131.15 71.97 132.24 73.9 130.55 73.01 128.33 73.9 128.87 72.36 127.44 71.22 129.47 70.43"/><polygon class="cls-1" points="92.62 8.32 89.81 6.74 93.84 6.47 94.81 1.55 95.43 6.3 99.99 7.26 96.74 8.14 98.41 12.36 94.64 9.81 90.33 12.36 92.62 8.32"/><polygon class="cls-1" points="56.87 34.19 57.05 32.84 57.86 34.28 59.55 34.63 57.93 35.35 57.24 36.84 56.54 35.42 54.85 35.01 56.87 34.19"/><polygon class="cls-1" points="46.5 60.3 47.25 58.06 48.67 60.68 51.58 60.75 48.29 61.95 48.89 65.01 47.1 63.22 44.04 64.78 45.6 62.09 43.52 60.3 46.5 60.3"/><polygon class="cls-1" points="23.91 82.83 24.58 81.16 24.87 83.07 26.92 83.36 24.77 84.93 24.11 86.56 23.53 84.74 21.72 83.64 23.91 82.83"/></svg>