<svg id="Capa_1" data-name="Capa 1" xmlns="http://www.w3.org/2000/svg" viewBox="0 0 268.45 274.76"><defs><style>.cls-1{font-size:36.47px;}.cls-1,.cls-11,.cls-4,.cls-5,.cls-7{fill:#1d1d1b;}.cls-1,.cls-4,.cls-5,.cls-7{font-family:Didot;}.cls-2{letter-spacing:-0.05em;}.cls-10,.cls-3,.cls-9{fill:none;stroke:#1d1d1b;stroke-miterlimit:10;}.cls-3{stroke-width:1.24px;}.cls-4{font-size:26.7px;}.cls-5{font-size:8.75px;}.cls-6{letter-spacing:-0.06em;}.cls-7{font-size:5px;}.cls-8{letter-spacing:-0.01em;}.cls-9{stroke-width:0.41px;}.cls-10{stroke-width:0.62px;}</style></defs><title>Mesa de trabajo 17 copia 12</title><text class="cls-1" transform="translate(79.51 72.39)">SO<tspan class="cls-2" x="54.67" y="0">D</tspan><tspan x="82.38" y="0">A</tspan></text><line class="cls-3" x1="6.56" y1="57.99" x2="67.24" y2="57.99"/><line class="cls-3" x1="201.21" y1="58.59" x2="261.89" y2="58.59"/><text class="cls-4" transform="translate(99.13 219.24)">Negra</text><text class="cls-5" transform="translate(97.38 83.69)">Refresco<tspan class="cls-6" x="34.34" y="0"> </tspan><tspan x="36.29" y="0">Artesanal</tspan></text><text class="cls-7" transform="translate(114.72 232.25)">By Cer<tspan class="cls-8" x="15.27" y="0">v</tspan><tspan x="17.63" y="0">eza Ceiba</tspan></text><line class="cls-9" x1="176.17" y1="215.15" x2="196.91" y2="215.15"/><line class="cls-9" x1="71.55" y1="215.15" x2="92.29" y2="215.15"/><path class="cls-10" d="M171.58,110.1c1.06-1.76,3.84-6.48,4.15-8.19,0,0,0-.47,1.51,1,0,0,.91,1.17.78,1.77l-4.67,13.36"/><path class="cls-10" d="M167.56,146c4.95-.29,28.23-2,35.35-9.82,0,0,.91-.19.82,1.82,0,0-1.34,6.75-14.21,9.78,0,0-9.69,2.27-28.17,3.15"/><path class="cls-10" d="M151.77,157.22c3.55.12,11.59,1,22.29,6.08,0,0,11.61,4.07,11.56-.61,0,0,.18-2.53-.74-3.52,0,0-.2-.31.06-.46,0,0,1.64-.8,2.14.11,0,0,1.16,4.33.11,6.71a9,9,0,0,1-8.42,5.42,98,98,0,0,1-12.27-1.12"/><path class="cls-10" d="M92.28,159.53a37.11,37.11,0,0,1-19.69,9.89s-2.81.34-4.32-3.13a2.16,2.16,0,0,0-2.16-.26,1.7,1.7,0,0,0-1.31,2.07s1.2,6.36,8.81,7.16c0,0,7.56,3.27,36-14.78"/><path class="cls-10" d="M109.48,161.72c-3.25,2.46-12.79,9.61-15,10.55,0,0-3.75,1.21-3.53,2.47,0,0-.31,2.33,4.39,2.5"/><path class="cls-10" d="M99.8,150.71c-3.77,1.14-12.77,3.8-13.93,3.82-1.47,0-7.27-1.31-4-5.35,0,0,2.69-2.92.61-3.88,0,0-3-1.39-4.24,2.24,0,0-2.62,8.65,5.42,10.4a68.37,68.37,0,0,0,24.52,1.62"/><path class="cls-10" d="M146.9,135.72C146,123.61,140,107.53,119,94.33c0,0-2.7,29.33,3,41"/><path class="cls-10" d="M138.87,162.28c-3,9.14-13.15,26.37-46.77,27.17,0,0-2-14,18-26.71"/><path class="cls-10" d="M138.16,157.85c.56,4.59,3.29,21.66,14,30,0,0,7.77,7.64,18.67,6.11,0,0,5.37-.44,6.06.22,0,0-3.36-25.67-25.2-37a44.64,44.64,0,0,0-9-3.47"/><path class="cls-10" d="M141,151.85s-.84-13.68,29-46.66c0,0,8.78,22.87.78,37.21,0,0-9,12.53-23.18,12.89"/><path class="cls-10" d="M107.25,151.16c.61-.52,1-2.86,1.13-3.37s-.25-2.6,4.43-5,2.43-4.07,2.43-4.07-.78-.09,0-1.65,1.73-1.55,1.73-1.55l1.63-.07a32.24,32.24,0,0,0-29.83-2.6,28.92,28.92,0,0,1-7.62.88S81.59,145,107,153.42C106.94,152.46,106.94,151.43,107.25,151.16Z"/><path class="cls-10" d="M107,153.42c.08.9.22,1.72.22,1.78a8.22,8.22,0,0,1,.34,2.79c-.18,1.13.25,1.82,1.38,1.57s.51,2.16.51,2.16l.86,1.3s1.3,1,1.3,2,3,.52,3.37-.6,5.72-2.67,7.62.8a7.35,7.35,0,0,0,4.06.39c2.08-.47,1.57-2.29,2.08-1s6.07-4.32,6.07-4.32.75-2.66,1.74-2.24c.05,0,.1,0,.14-.07.45,0,.93-.06,1.41-.11a9.89,9.89,0,0,0,3.38-.79c1.93-1.06.94-4,.94-4l-5.62-5.65c-.67-4.18-2.19-8.43-5.22-10.31a8.51,8.51,0,0,1-1.9-2c-.26-.69-3,0-3,0l-8.06.34"/><path class="cls-10" d="M118.61,135.45l-1.63.07s-1,0-1.73,1.55,0,1.65,0,1.65,2.25,1.68-2.43,4.07-4.34,4.48-4.43,5-.52,2.85-1.13,3.37c-.31.27-.31,1.3-.23,2.26"/><path class="cls-10" d="M116.12,156.38a17.28,17.28,0,0,0,2.46-1.15c.51-.41.43.2,2.5,1.15,0,0,7.69,4.26,8.92-2.65,0,0,1.24-10.56-4-12.39s-7.62,2.32-8.57,3.53c0,0-2.09,3.77-2.53,4.39s-1.39,6,.42,6c0,0,.57.05,0,.52S115.74,156.52,116.12,156.38Z"/><path class="cls-11" d="M115.43,153.86c.08-1.28.17-2.57.28-3.85v0c.85-1.54,1.71-3.09,2.59-4.62h0a15.78,15.78,0,0,1,1.92-2.08,7.77,7.77,0,0,1,1.13-.85,2,2,0,0,1,1.35-.33,1.94,1.94,0,0,0-1.31.4,9,9,0,0,0-1.08.88,19.42,19.42,0,0,0-1.86,2.09h0c-.86,1.55-1.74,3.08-2.62,4.61v0C115.74,151.3,115.59,152.58,115.43,153.86Z"/><path class="cls-11" d="M116.37,154.48c.08-1.29.17-2.58.29-3.86h0v0c.85-1.54,1.69-3.1,2.59-4.63h0a16.82,16.82,0,0,1,2.32-2.45,7.07,7.07,0,0,1,1.39-1,3.18,3.18,0,0,1,1.62-.41,3.15,3.15,0,0,0-1.58.48,9.36,9.36,0,0,0-1.35,1,16.52,16.52,0,0,0-2.26,2.47h0c-.84,1.56-1.74,3.08-2.62,4.61v0C116.67,151.92,116.53,153.2,116.37,154.48Z"/><path class="cls-11" d="M117.16,155.08c.18-1.37.38-2.75.6-4.12h0c.85-1.55,1.69-3.1,2.59-4.63h0a18.77,18.77,0,0,1,2.6-2.52,8.05,8.05,0,0,1,1.52-1,3.14,3.14,0,0,1,1.75-.38,3.11,3.11,0,0,0-1.71.45,10,10,0,0,0-1.49,1,19.58,19.58,0,0,0-2.54,2.53h0c-.84,1.55-1.74,3.07-2.62,4.61v0C117.67,152.35,117.43,153.72,117.16,155.08Z"/><path class="cls-11" d="M118.51,154.49c0-1,.07-2.07.13-3.1v0h0c.86-1.55,1.7-3.1,2.59-4.63h0a18.73,18.73,0,0,1,2.62-2.34,8.28,8.28,0,0,1,1.52-.89,3.27,3.27,0,0,1,1.71-.32,3.28,3.28,0,0,0-1.68.39,9.29,9.29,0,0,0-1.47.92,17.88,17.88,0,0,0-2.57,2.35h0c-.84,1.55-1.74,3.08-2.62,4.61v0Q118.67,152.95,118.51,154.49Z"/><path class="cls-11" d="M119.44,154.5c0-.9.08-1.8.14-2.69v0c.86-1.54,1.71-3.09,2.59-4.62h0a13.72,13.72,0,0,1,2.37-2.2,6.94,6.94,0,0,1,1.4-.8,3.2,3.2,0,0,1,1.58-.26,3.17,3.17,0,0,0-1.54.33,7.53,7.53,0,0,0-1.36.84,15,15,0,0,0-2.3,2.21h0c-.86,1.55-1.74,3.08-2.62,4.61v0C119.66,152.71,119.56,153.61,119.44,154.5Z"/><path class="cls-11" d="M121.77,133.37a2.52,2.52,0,0,0,1,.24,5.59,5.59,0,0,0,1-.13c.67-.11,1.34-.18,2-.23a21.09,21.09,0,0,1,4.05.07,2.65,2.65,0,0,1,1.77,1,19.87,19.87,0,0,1,1.16,1.66,29.33,29.33,0,0,0,2.87,2.81h0v0c.75,1.68,1.48,3.36,2.1,5.09a5.39,5.39,0,0,1,.35,1.34,3.56,3.56,0,0,0,.48,1.25,20.2,20.2,0,0,0,1.52,2.29,20.75,20.75,0,0,1-1.59-2.25,3.25,3.25,0,0,1-.52-1.29,5.6,5.6,0,0,0-.36-1.3c-.63-1.72-1.38-3.39-2.14-5l0,0-1.5-1.36a10.34,10.34,0,0,1-1.4-1.48c-.4-.55-.71-1.15-1.14-1.66a2.53,2.53,0,0,0-1.66-.94,21.59,21.59,0,0,0-4-.11c-.68,0-1.35.08-2,.17a6.93,6.93,0,0,1-1,.11A2.5,2.5,0,0,1,121.77,133.37Z"/><path class="cls-11" d="M121.7,132.29a2.86,2.86,0,0,0,1,.19,3.07,3.07,0,0,0,1-.21,11.48,11.48,0,0,1,2-.3,22.15,22.15,0,0,1,4.07.15,3.41,3.41,0,0,1,1.89.78,8.57,8.57,0,0,1,1.35,1.54,30.79,30.79,0,0,0,2.89,2.82l0,0h0c.84,1.77,1.66,3.55,2.38,5.37a10.85,10.85,0,0,1,.48,1.39,3.11,3.11,0,0,0,.43,1.37,19.82,19.82,0,0,0,1.6,2.45,19.11,19.11,0,0,1-1.68-2.4,3.24,3.24,0,0,1-.47-1.39,11.81,11.81,0,0,0-.47-1.38c-.74-1.8-1.58-3.57-2.43-5.33l0,0a25.26,25.26,0,0,1-2.92-2.84,8.81,8.81,0,0,0-1.31-1.53,3.22,3.22,0,0,0-1.8-.77,22.7,22.7,0,0,0-4-.19,11.25,11.25,0,0,0-2,.23,3.42,3.42,0,0,1-1,.2A2.89,2.89,0,0,1,121.7,132.29Z"/><path class="cls-11" d="M121.23,130.91a2.36,2.36,0,0,0,2.16.15,12.87,12.87,0,0,1,2.23-.31,20.49,20.49,0,0,1,4.49.21,5.51,5.51,0,0,1,2,1.08,12,12,0,0,1,1.62,1.57,27.83,27.83,0,0,0,3.18,3.15h0v0c.47,1,.93,1.94,1.37,2.92.22.49.44,1,.63,1.49a7,7,0,0,1,.43,1.55,6.48,6.48,0,0,0-.51-1.52l-.66-1.47c-.46-1-.93-1.93-1.42-2.89l0,0a25.14,25.14,0,0,1-3.2-3.16,12.41,12.41,0,0,0-1.59-1.57,5.14,5.14,0,0,0-1.91-1.06,20.15,20.15,0,0,0-4.46-.26,11.8,11.8,0,0,0-2.22.25A2.45,2.45,0,0,1,121.23,130.91Z"/><path class="cls-11" d="M121.17,129.76a2.46,2.46,0,0,0,2.21.13,12.61,12.61,0,0,1,2.28-.3,18.75,18.75,0,0,1,4.61.27,11,11,0,0,1,3.86,2.51c1,1.18,2.14,2.2,3.22,3.29-.61-.47-1.18-1-1.75-1.5-.28-.25-.57-.52-.84-.79a10.59,10.59,0,0,0-.76-.86,10.81,10.81,0,0,0-3.77-2.5,18.8,18.8,0,0,0-4.56-.32,12.33,12.33,0,0,0-2.28.24,2.46,2.46,0,0,1-2.22-.17Z"/><path class="cls-11" d="M121,128.74a2.39,2.39,0,0,0,1.75.27,8.27,8.27,0,0,1,1.78-.36,22,22,0,0,1,3.63-.08,13.89,13.89,0,0,1,1.82.21,8.44,8.44,0,0,1,1.72.64,8.34,8.34,0,0,1,2.89,2.19,10.78,10.78,0,0,0-3-2A9.13,9.13,0,0,0,130,129a13.28,13.28,0,0,0-1.79-.24,25.73,25.73,0,0,0-3.62,0,8.3,8.3,0,0,0-1.78.31A2.4,2.4,0,0,1,121,128.74Z"/><path class="cls-11" d="M120.76,127.45a2.3,2.3,0,0,0,2.1.15,9,9,0,0,1,2.18-.35,15.77,15.77,0,0,1,4.39.28,35.58,35.58,0,0,0-4.38-.09,15.63,15.63,0,0,0-2.17.21A2.47,2.47,0,0,1,120.76,127.45Z"/><path class="cls-11" d="M120.51,126.57a2.51,2.51,0,0,0,2.32.07,11.43,11.43,0,0,1,1.19-.27,3,3,0,0,1,1.2,0,3.66,3.66,0,0,0-1.19.08,11.13,11.13,0,0,0-1.17.3,3.49,3.49,0,0,1-1.2.22A2.63,2.63,0,0,1,120.51,126.57Z"/><path class="cls-11" d="M120.28,125.54a3.1,3.1,0,0,0,1.4.3c.47,0,.91-.35,1.42-.32a4,4,0,0,0-.7.21,2.43,2.43,0,0,1-.71.21A2.55,2.55,0,0,1,120.28,125.54Z"/><path class="cls-11" d="M120.05,124.57a3.84,3.84,0,0,0,1,.29,2,2,0,0,0,.54,0,2.93,2.93,0,0,1,.53-.1c-.18,0-.33.14-.52.17a1.75,1.75,0,0,1-.56,0A2.63,2.63,0,0,1,120.05,124.57Z"/><path class="cls-11" d="M119.9,123.72a3.1,3.1,0,0,0,1.82.27,1.58,1.58,0,0,1-.94.1A2.54,2.54,0,0,1,119.9,123.72Z"/><path class="cls-11" d="M119.89,122.87a4.88,4.88,0,0,0,1.45.35A1.85,1.85,0,0,1,119.89,122.87Z"/><path class="cls-11" d="M119.84,122.08a9.8,9.8,0,0,0,1.17.35A1.71,1.71,0,0,1,119.84,122.08Z"/><path class="cls-11" d="M119.63,121.1c.37.13.73.25,1.11.35A1.59,1.59,0,0,1,119.63,121.1Z"/><path class="cls-11" d="M119.5,120.12l1,.34A1.52,1.52,0,0,1,119.5,120.12Z"/><path class="cls-11" d="M119.34,119.34a7,7,0,0,1,.87.32A1.32,1.32,0,0,1,119.34,119.34Z"/><path class="cls-11" d="M119.36,118.51a4,4,0,0,1,.78.29A1.2,1.2,0,0,1,119.36,118.51Z"/><path class="cls-11" d="M119.32,117.7a1,1,0,0,1,.6.25A1.11,1.11,0,0,1,119.32,117.7Z"/><path class="cls-11" d="M119.27,116.85a.73.73,0,0,1,.49.21A.75.75,0,0,1,119.27,116.85Z"/><path class="cls-11" d="M119.24,116a.88.88,0,0,1,.52.22A.84.84,0,0,1,119.24,116Z"/><path class="cls-11" d="M141.38,156.31a3.78,3.78,0,0,0,.45-1.39,3.59,3.59,0,0,0-.12-1.45,2,2,0,0,1,.29.71,2.21,2.21,0,0,1,0,.77A2.39,2.39,0,0,1,141.38,156.31Z"/><path class="cls-11" d="M140.83,156.26a5.11,5.11,0,0,0,.33-3.08,2,2,0,0,1,.28.77,3.21,3.21,0,0,1,0,.82A3.55,3.55,0,0,1,140.83,156.26Z"/><path class="cls-11" d="M140.2,156.29a8.19,8.19,0,0,0,.36-3.61,3.63,3.63,0,0,1,.23,1.85A4.53,4.53,0,0,1,140.2,156.29Z"/><path class="cls-11" d="M139.4,156.4a15.14,15.14,0,0,0,.47-2.18,6.32,6.32,0,0,0-.06-2.21,3.72,3.72,0,0,1,.29,1.1,6.08,6.08,0,0,1,0,1.13A6.54,6.54,0,0,1,139.4,156.4Z"/><path class="cls-11" d="M138.66,156.53a14.53,14.53,0,0,0,.41-5.33,7,7,0,0,1,.25,2.7A8.84,8.84,0,0,1,138.66,156.53Z"/><path class="cls-11" d="M137.61,157a19.08,19.08,0,0,0,.6-3.33,14.34,14.34,0,0,0-.08-3.38,7.89,7.89,0,0,1,.3,1.68,9.77,9.77,0,0,1,0,1.71A11.45,11.45,0,0,1,137.61,157Z"/><path class="cls-11" d="M136.72,157.18c.15-.65.26-1.31.38-2s.21-1.32.26-2a14.74,14.74,0,0,0,.1-2,8.86,8.86,0,0,0-.24-2,8.83,8.83,0,0,1,.35,4A18.13,18.13,0,0,1,136.72,157.18Z"/><path class="cls-11" d="M172.45,109.89a14.8,14.8,0,0,1,.81,2,7.25,7.25,0,0,1,.41,2.16,7.37,7.37,0,0,0-.28-1l-.32-1C172.86,111.29,172.62,110.6,172.45,109.89Z"/><path class="cls-11" d="M172.9,109.1a8.5,8.5,0,0,1,.76,1.58,4.69,4.69,0,0,1,.32,1.73,8.06,8.06,0,0,0-.24-.84c-.08-.27-.17-.55-.28-.82C173.28,110.2,173.06,109.66,172.9,109.1Z"/><path class="cls-11" d="M173.37,108.29a6.18,6.18,0,0,1,.68,1.39,4,4,0,0,1,.24,1.53C174.06,110.21,173.67,109.29,173.37,108.29Z"/><path class="cls-11" d="M173.72,107.54a4.07,4.07,0,0,1,.62,1.14,3,3,0,0,1,.18,1.28C174.31,109.13,174,108.37,173.72,107.54Z"/><path class="cls-11" d="M174.08,106.89a1.7,1.7,0,0,1,.55.79,1.91,1.91,0,0,1,.09.95A10.33,10.33,0,0,0,174.08,106.89Z"/><path class="cls-11" d="M174.48,106.17a1.11,1.11,0,0,1,.43.57,1.46,1.46,0,0,1,.08.72C174.77,107,174.66,106.61,174.48,106.17Z"/><path class="cls-11" d="M166.06,149.61c.71-.49,1.43-1,2.09-1.48a10.9,10.9,0,0,0,1-.83,6,6,0,0,0,.84-1,5.53,5.53,0,0,1-1.68,1.95A10.58,10.58,0,0,1,166.06,149.61Z"/><path class="cls-11" d="M164.14,149.87c.78-.52,1.57-1,2.32-1.53.38-.26.75-.54,1.11-.83a4.7,4.7,0,0,0,1-1,3.42,3.42,0,0,1-.86,1.1,10.23,10.23,0,0,1-1.09.88A15.33,15.33,0,0,1,164.14,149.87Z"/><path class="cls-11" d="M167.81,149.45c1-1,2.05-2,3.07-3a9.26,9.26,0,0,1-1.4,1.66A14.74,14.74,0,0,1,167.81,149.45Z"/><path class="cls-11" d="M169.23,149.23c.93-1,1.86-1.93,2.75-3a7.48,7.48,0,0,1-1.21,1.64A9.68,9.68,0,0,1,169.23,149.23Z"/><path class="cls-11" d="M170.53,149.06c.79-1,1.62-1.85,2.44-2.79a7.78,7.78,0,0,1-1.07,1.53A9.61,9.61,0,0,1,170.53,149.06Z"/><path class="cls-11" d="M172,148.76c.63-.88,1.3-1.71,2-2.56a6.05,6.05,0,0,1-.84,1.4A6.89,6.89,0,0,1,172,148.76Z"/><path class="cls-11" d="M173.59,148.38c.53-.8,1-1.56,1.63-2.32a4.92,4.92,0,0,1-.67,1.26A5.09,5.09,0,0,1,173.59,148.38Z"/><path class="cls-11" d="M175.13,148.07a17.32,17.32,0,0,1,1.32-2.18,4.91,4.91,0,0,1-.52,1.17A4.56,4.56,0,0,1,175.13,148.07Z"/><path class="cls-11" d="M176.52,147.77a6.19,6.19,0,0,1,1.07-2A6.49,6.49,0,0,1,176.52,147.77Z"/><path class="cls-11" d="M177.7,147.46a5,5,0,0,1,.91-1.83A4.92,4.92,0,0,1,177.7,147.46Z"/><path class="cls-11" d="M179,147a3.7,3.7,0,0,1,.64-1.6A3.54,3.54,0,0,1,179,147Z"/><path class="cls-11" d="M180,146.87c.05-.14.08-.28.12-.42l.14-.4a3.93,3.93,0,0,1,.38-.77,3.08,3.08,0,0,1-.19.85A2,2,0,0,1,180,146.87Z"/><path class="cls-11" d="M181.17,146.39a3.23,3.23,0,0,1,.74-1.42A3,3,0,0,1,181.17,146.39Z"/><path class="cls-11" d="M182.11,145.91a5.27,5.27,0,0,1,.8-1.09,1.82,1.82,0,0,1-.27.64A1.11,1.11,0,0,1,182.11,145.91Z"/><path class="cls-11" d="M156.11,158.58a20.88,20.88,0,0,1,3.18,1.9,29.54,29.54,0,0,1,2.89,2.34,28.17,28.17,0,0,1,2.55,2.69,26.68,26.68,0,0,1,2.18,3A36.2,36.2,0,0,0,162,163a32,32,0,0,0-2.84-2.36A27.41,27.41,0,0,0,156.11,158.58Z"/><path class="cls-11" d="M158.11,158.89a24.68,24.68,0,0,1,5.77,4.24,30.28,30.28,0,0,1,2.42,2.65,31.1,31.1,0,0,1,2.09,2.92,40.06,40.06,0,0,0-4.65-5.42,33.26,33.26,0,0,0-2.69-2.35A25.69,25.69,0,0,0,158.11,158.89Z"/><path class="cls-11" d="M160.29,159.27a21.78,21.78,0,0,1,5.51,4.19,29.83,29.83,0,0,1,2.26,2.63A30.71,30.71,0,0,1,170,169c-.65-.95-1.31-1.89-2-2.79a31,31,0,0,0-2.28-2.59,29.46,29.46,0,0,0-2.54-2.33A21.46,21.46,0,0,0,160.29,159.27Z"/><path class="cls-11" d="M163,160a8,8,0,0,1,2.32,1.49,20.25,20.25,0,0,1,2,2c.61.7,1.19,1.43,1.73,2.17s1.05,1.52,1.54,2.31l-1.66-2.21c-.57-.73-1.15-1.45-1.76-2.13a25.64,25.64,0,0,0-1.92-2A9.47,9.47,0,0,0,163,160Z"/><path class="cls-11" d="M166,160.89a7.53,7.53,0,0,1,1.57,1.24c.48.47.92,1,1.35,1.48a28.68,28.68,0,0,1,2.3,3.27c-.83-1-1.61-2.12-2.46-3.14-.41-.52-.85-1-1.3-1.5A10.39,10.39,0,0,0,166,160.89Z"/><path class="cls-11" d="M168.24,161.74a7.51,7.51,0,0,1,1.93,1.71,12.55,12.55,0,0,1,.76,1,9.52,9.52,0,0,1,.62,1.13c-.5-.69-1-1.39-1.54-2-.27-.33-.55-.64-.84-1S168.57,162,168.24,161.74Z"/><path class="cls-11" d="M170.35,162.47a4.14,4.14,0,0,1,1.06.94,4.83,4.83,0,0,1,.75,1.2C171.54,163.89,171,163.18,170.35,162.47Z"/><path class="cls-11" d="M172,163.06a1.27,1.27,0,0,1,.44.42,1,1,0,0,1,.2.57A2.86,2.86,0,0,1,172,163.06Z"/><path class="cls-11" d="M153.32,127.25l-.46,3.24c-.08.54-.14,1.08-.2,1.62a6.27,6.27,0,0,0,0,1.62,4.48,4.48,0,0,1-.15-1.63,14.91,14.91,0,0,1,.15-1.64A25,25,0,0,1,153.32,127.25Z"/><path class="cls-11" d="M152.26,128.67l-.67,3.68c-.11.61-.2,1.22-.28,1.84a12.73,12.73,0,0,0-.15,1.86,13.42,13.42,0,0,1,.23-3.74A31,31,0,0,1,152.26,128.67Z"/><path class="cls-11" d="M148.13,135.37a17.39,17.39,0,0,0-.95,3.55,16.59,16.59,0,0,0-.17,3.66,12.59,12.59,0,0,0,2.54,6.77,11.52,11.52,0,0,1-1.92-3.15,12.47,12.47,0,0,1-.83-3.61,16.37,16.37,0,0,1,.22-3.7A14.87,14.87,0,0,1,148.13,135.37Z"/><path class="cls-11" d="M146.57,138.24a17.16,17.16,0,0,0-.93,3.44,8.15,8.15,0,0,0,.14,3.51,12.76,12.76,0,0,0,1.35,3.27,25.47,25.47,0,0,0,2,3,15.6,15.6,0,0,1-3.52-6.19,8.06,8.06,0,0,1-.09-3.59A15,15,0,0,1,146.57,138.24Z"/><path class="cls-11" d="M144.44,142.1a11.14,11.14,0,0,0,0,3.41,11.77,11.77,0,0,0,1.09,3.22,9.32,9.32,0,0,0,2,2.72,7.79,7.79,0,0,1,2,2.78,8.47,8.47,0,0,0-2.1-2.67,9.06,9.06,0,0,1-2.11-2.73,11.31,11.31,0,0,1-1.06-3.29A9.7,9.7,0,0,1,144.44,142.1Z"/><path class="cls-11" d="M143.37,144.75a16,16,0,0,0,.2,2.78,7.51,7.51,0,0,0,1.24,2.46,19.27,19.27,0,0,0,1.82,2.11,6.77,6.77,0,0,1,1.72,2.21,14,14,0,0,0-1.87-2.06,18.65,18.65,0,0,1-1.81-2.16,7,7,0,0,1-1.22-2.53,6.71,6.71,0,0,1-.11-1.41C143.34,145.68,143.34,145.22,143.37,144.75Z"/><path class="cls-11" d="M142.63,146.59a22.2,22.2,0,0,0,.13,2.31,4.12,4.12,0,0,0,1,2c1,1.18,2.21,2.14,3.26,3.28a27.46,27.46,0,0,1-3.42-3.15,4,4,0,0,1-1-2.11A20.13,20.13,0,0,1,142.63,146.59Z"/><path class="cls-11" d="M142.07,148.91c0,.54,0,1.08.06,1.61a4.91,4.91,0,0,0,.08.79,1.49,1.49,0,0,0,.42.63,8.63,8.63,0,0,0,1.3.91,6.14,6.14,0,0,1,1.26,1,12.72,12.72,0,0,0-1.35-.85,5.89,5.89,0,0,1-1.34-.94,1.41,1.41,0,0,1-.42-.73,7.44,7.44,0,0,1,0-.81C142,150,142,149.45,142.07,148.91Z"/><path class="cls-11" d="M151,130.34c-.32,1.66-.67,3.31-.94,5-.14.84-.26,1.67-.33,2.51a8.84,8.84,0,0,0,0,1.26c0,.4,0,.89.38,1.16-.37-.25-.41-.75-.48-1.15a9.12,9.12,0,0,1,0-1.28,23.89,23.89,0,0,1,.29-2.53A41.77,41.77,0,0,1,151,130.34Z"/><path class="cls-11" d="M149.92,131.89a47.28,47.28,0,0,0-1.32,6.45,18.81,18.81,0,0,0-.16,3.27,5.93,5.93,0,0,0,.84,3.13,5.67,5.67,0,0,1-1-3.12,16.67,16.67,0,0,1,.12-3.31A32.24,32.24,0,0,1,149.92,131.89Z"/><path class="cls-11" d="M105.94,151.89a5,5,0,0,1,.43-1.64,1.71,1.71,0,0,1,.53-.66,2.21,2.21,0,0,0,.32-.75,15.5,15.5,0,0,0,.32-1.65l.11-.85a3,3,0,0,1,.31-.81,8.3,8.3,0,0,1,2.25-2.54,17.3,17.3,0,0,1,2.91-1.78h0c.45-.3,1-.71,1-1.25,0-.25-.28-.46-.34-.77a2.06,2.06,0,0,1,0-.89,4.18,4.18,0,0,1,.7-1.6,9,9,0,0,1,1.15-1.31,8.82,8.82,0,0,0-1.09,1.35,4.45,4.45,0,0,0-.65,1.58,1.93,1.93,0,0,0,0,.83,1.33,1.33,0,0,0,.18.38.84.84,0,0,1,.18.42,1.19,1.19,0,0,1-.37.83,3.74,3.74,0,0,1-.68.57h0a18.21,18.21,0,0,0-2.85,1.79,8,8,0,0,0-2.24,2.46,3.12,3.12,0,0,0-.31.76l-.12.84a13.61,13.61,0,0,1-.35,1.66,2,2,0,0,1-.35.79,1.56,1.56,0,0,0-.55.62A5,5,0,0,0,105.94,151.89Z"/><path class="cls-11" d="M104.8,151.54a5.23,5.23,0,0,1,.43-1.64,1.64,1.64,0,0,1,.53-.66,2.1,2.1,0,0,0,.32-.75,15.21,15.21,0,0,0,.32-1.66l.11-.84a3.31,3.31,0,0,1,.31-.81,8.24,8.24,0,0,1,2.26-2.55,18.28,18.28,0,0,1,2.9-1.77h0c.45-.3,1-.71,1-1.25,0-.25-.28-.47-.33-.77a1.92,1.92,0,0,1,0-.89,4.06,4.06,0,0,1,.71-1.6,8.37,8.37,0,0,1,1.14-1.31,8.76,8.76,0,0,0-1.08,1.35,4.2,4.2,0,0,0-.65,1.58,1.79,1.79,0,0,0,0,.83,1.56,1.56,0,0,0,.17.37.83.83,0,0,1,.18.43,1.23,1.23,0,0,1-.37.83,3.33,3.33,0,0,1-.68.56h0a17.94,17.94,0,0,0-2.85,1.79,8.06,8.06,0,0,0-2.24,2.45,3.32,3.32,0,0,0-.3.77l-.13.83a15.94,15.94,0,0,1-.34,1.67,2.25,2.25,0,0,1-.36.79,1.5,1.5,0,0,0-.55.62A5.55,5.55,0,0,0,104.8,151.54Z"/><path class="cls-11" d="M103.63,151.16a5,5,0,0,1,.43-1.64,1.71,1.71,0,0,1,.53-.66,2.21,2.21,0,0,0,.32-.75,15.5,15.5,0,0,0,.32-1.65l.11-.85a3.31,3.31,0,0,1,.31-.81,8.3,8.3,0,0,1,2.25-2.54,17.71,17.71,0,0,1,2.91-1.78h0c.45-.3,1-.71,1-1.25,0-.25-.28-.47-.34-.77a2.06,2.06,0,0,1,0-.89,4.06,4.06,0,0,1,.71-1.6,8.37,8.37,0,0,1,1.14-1.31,8.82,8.82,0,0,0-1.09,1.35,4.45,4.45,0,0,0-.65,1.58,1.78,1.78,0,0,0,0,.83,1,1,0,0,0,.17.37.92.92,0,0,1,.18.43,1.19,1.19,0,0,1-.37.83,3.74,3.74,0,0,1-.68.57h0a18.21,18.21,0,0,0-2.85,1.79,8,8,0,0,0-2.24,2.46,3.12,3.12,0,0,0-.31.76l-.12.84a15.76,15.76,0,0,1-.34,1.66,2.25,2.25,0,0,1-.36.79,1.56,1.56,0,0,0-.55.62A5,5,0,0,0,103.63,151.16Z"/><path class="cls-11" d="M100,152.27c2,.66,4,1.39,6,2.15l.06,0v.06l.23,2,.12,1a6.29,6.29,0,0,0,.19,1,5.46,5.46,0,0,1-.26-1c-.08-.33-.13-.66-.18-1-.12-.66-.21-1.32-.29-2l.06.08C103.94,153.87,101.94,153.1,100,152.27Z"/><path class="cls-11" d="M99.13,152.86c2,.66,4,1.4,6,2.16l0,0v.06l.22,2,.13,1a5.47,5.47,0,0,0,.19,1,4.66,4.66,0,0,1-.27-1c-.07-.32-.13-.65-.18-1-.11-.66-.2-1.33-.28-2l.06.08C103.09,154.46,101.1,153.7,99.13,152.86Z"/><path class="cls-11" d="M98.2,153.59c2,.66,4,1.39,6,2.16l.05,0v.06c.14,1.09.26,2.19.37,3.3-.21-1.09-.39-2.18-.56-3.28l.06.07C102.16,155.2,100.17,154.43,98.2,153.59Z"/><path class="cls-11" d="M97.31,154.15c2,.65,4,1.38,6,2.16l.05,0v0c.13,1,.24,2,.33,3-.19-1-.36-2-.51-3l.06.08C101.27,155.75,99.28,155,97.31,154.15Z"/><path class="cls-11" d="M92.72,160.64c1.19.18,2.39.31,3.59.42s2.4.18,3.6.21a32.49,32.49,0,0,0,7.17-.49,22.45,22.45,0,0,1-3.56.61c-1.2.09-2.41.11-3.62.09A42.25,42.25,0,0,1,92.72,160.64Z"/><path class="cls-11" d="M92,161.57c1.19.17,2.39.3,3.58.41s2.4.19,3.6.22a33.24,33.24,0,0,0,7.18-.49,22.55,22.55,0,0,1-3.57.6c-1.2.1-2.41.12-3.62.1A42.14,42.14,0,0,1,92,161.57Z"/><path class="cls-11" d="M91.11,162.54c2.07.28,4.15.5,6.23.59a42.21,42.21,0,0,0,6.26-.1,29.25,29.25,0,0,1-6.27.31A39.5,39.5,0,0,1,91.11,162.54Z"/><path class="cls-11" d="M89.65,163.43a65,65,0,0,0,10.8.6,29.85,29.85,0,0,1-5.43.13A34.83,34.83,0,0,1,89.65,163.43Z"/><path class="cls-11" d="M88.42,164.29a78,78,0,0,0,9.78.66,29.82,29.82,0,0,1-4.91,0A34.6,34.6,0,0,1,88.42,164.29Z"/><path class="cls-11" d="M86.78,165.2c1.47.17,2.93.34,4.4.45s2.94.19,4.42.25a29.91,29.91,0,0,1-4.44,0A30.87,30.87,0,0,1,86.78,165.2Z"/><path class="cls-11" d="M85.64,166c2,.2,4.06.38,6.09.61a22.36,22.36,0,0,1-3.06-.11A20.59,20.59,0,0,1,85.64,166Z"/><path class="cls-11" d="M84.26,166.86c.61,0,1.21.15,1.81.2a15.69,15.69,0,0,1,1.8.29A10.51,10.51,0,0,1,84.26,166.86Z"/><path class="cls-11" d="M94.12,176.16a30.59,30.59,0,0,1,1.82-2.94,15.2,15.2,0,0,1,2.24-2.63,15.46,15.46,0,0,0-1.07,1.35l-1,1.4C95.45,174.28,94.81,175.23,94.12,176.16Z"/><path class="cls-11" d="M95.12,176.27a36,36,0,0,1,2.51-3.94,14.41,14.41,0,0,1,3.24-3.37,12.17,12.17,0,0,0-1.63,1.66c-.5.59-1,1.2-1.44,1.83C96.87,173.69,96,175,95.12,176.27Z"/><path class="cls-11" d="M93.18,176.3a22.32,22.32,0,0,1,1.35-2.25A17,17,0,0,1,96.15,172C95.19,173.45,94.23,174.9,93.18,176.3Z"/><path class="cls-11" d="M92.34,176.07a18.1,18.1,0,0,1,2.16-3.24A17.92,17.92,0,0,1,92.34,176.07Z"/><path class="cls-11" d="M91.76,175.73a11.85,11.85,0,0,1,1.72-2.6A11.62,11.62,0,0,1,91.76,175.73Z"/><path class="cls-11" d="M91.49,175.16a3.32,3.32,0,0,1,.9-1.4A3.32,3.32,0,0,1,91.49,175.16Z"/><path class="cls-11" d="M109.12,164.64a8.73,8.73,0,0,1,.9,1.42.81.81,0,0,1,.11.41c0,.12.12.22.23.29a2.2,2.2,0,0,0,.79.24,7.2,7.2,0,0,0,3.27-.52h0a7.77,7.77,0,0,1,3.11-1.64,3.18,3.18,0,0,1,1.78.09,3,3,0,0,1,1.38,1.13h0a2.55,2.55,0,0,0,1.46,1.08,5.4,5.4,0,0,0,1.88.24,13.14,13.14,0,0,0,3.75-.79h0a1.15,1.15,0,0,1,.82-.17.51.51,0,0,1,.32.32c0,.16,0,.22.17.26a2.25,2.25,0,0,0,1.41-.42,12.89,12.89,0,0,0,2.43-2,35.25,35.25,0,0,0,3.9-5,31.59,31.59,0,0,1-3.82,5,12.19,12.19,0,0,1-2.44,2,2.36,2.36,0,0,1-1.54.45.3.3,0,0,1-.19-.16c0-.09,0-.14-.07-.19a.32.32,0,0,0-.22-.22,1,1,0,0,0-.69.15h0a13.39,13.39,0,0,1-3.8.83,5.37,5.37,0,0,1-2-.25,2.73,2.73,0,0,1-1.56-1.19h0a2.8,2.8,0,0,0-1.29-1.07,3,3,0,0,0-1.69-.1,7.53,7.53,0,0,0-3.06,1.58h0a7.12,7.12,0,0,1-3.32.48,2.35,2.35,0,0,1-.81-.27c-.11-.08-.26-.17-.25-.35a.8.8,0,0,0-.09-.39A10.49,10.49,0,0,0,109.12,164.64Z"/><path class="cls-11" d="M108.4,166a9.1,9.1,0,0,1,.95,1.43.9.9,0,0,1,.1.42c0,.13.15.22.27.28a2.51,2.51,0,0,0,.81.23,7.71,7.71,0,0,0,3.35-.52h0a7.91,7.91,0,0,1,3.21-1.64,3.41,3.41,0,0,1,1.82.08,3.15,3.15,0,0,1,1.44,1.13h0v0a2.64,2.64,0,0,0,1.52,1.08,5.74,5.74,0,0,0,1.94.23,13.87,13.87,0,0,0,3.86-.78h0a1.24,1.24,0,0,1,.83-.16.5.5,0,0,1,.35.3c0,.17,0,.24.16.28a2.36,2.36,0,0,0,1.45-.42,12.47,12.47,0,0,0,2.5-2,34,34,0,0,0,4.05-5,30.79,30.79,0,0,1-4,5.06,12.29,12.29,0,0,1-2.52,2,2.4,2.4,0,0,1-1.58.44c-.17,0-.24-.28-.26-.36a.31.31,0,0,0-.23-.21,1.15,1.15,0,0,0-.71.15h0a14.14,14.14,0,0,1-3.91.83,5.7,5.7,0,0,1-2-.25,2.76,2.76,0,0,1-1.63-1.2v0a2.89,2.89,0,0,0-1.34-1.08,3.21,3.21,0,0,0-1.74-.09,7.79,7.79,0,0,0-3.16,1.58h0a7.34,7.34,0,0,1-3.4.49,2.42,2.42,0,0,1-.83-.25c-.12-.08-.27-.16-.29-.33a.82.82,0,0,0-.09-.41A8.4,8.4,0,0,0,108.4,166Z"/><path class="cls-11" d="M108.93,169.21c0,.22.25.31.42.39a3,3,0,0,0,.59.15,5,5,0,0,0,1.22,0,10.28,10.28,0,0,0,2.38-.55h0a8.39,8.39,0,0,1,3.32-1.63,3.53,3.53,0,0,1,1.88.08,3.14,3.14,0,0,1,1.49,1.13v0a2.73,2.73,0,0,0,1.59,1.08,6.1,6.1,0,0,0,2,.23,14.87,14.87,0,0,0,4-.79h0a1.38,1.38,0,0,1,.85-.17.5.5,0,0,1,.36.3c.06.17.06.24.17.28a2.43,2.43,0,0,0,1.48-.4,13,13,0,0,0,2.59-2,34.72,34.72,0,0,0,4.21-5,31.54,31.54,0,0,1-4.12,5.09,13.38,13.38,0,0,1-2.6,2,2.51,2.51,0,0,1-1.62.41c-.18,0-.24-.28-.26-.36a.34.34,0,0,0-.25-.2,1.17,1.17,0,0,0-.72.15h0a15.36,15.36,0,0,1-4,.83,6.26,6.26,0,0,1-2.06-.24,2.88,2.88,0,0,1-1.7-1.21v0a3,3,0,0,0-1.4-1.08,3.39,3.39,0,0,0-1.79-.09,8.29,8.29,0,0,0-3.27,1.58h0a9.09,9.09,0,0,1-2.41.51,5.61,5.61,0,0,1-1.23-.06,3.06,3.06,0,0,1-.59-.17C109.18,169.53,108.93,169.43,108.93,169.21Z"/><path class="cls-11" d="M113.57,170.89a7.86,7.86,0,0,1,3.26-1.67,3.56,3.56,0,0,1,1.86.07,3.19,3.19,0,0,1,1.48,1.13h0a2.72,2.72,0,0,0,1.58,1.09,6.29,6.29,0,0,0,2,.23,14.58,14.58,0,0,0,4-.79h0a1.31,1.31,0,0,1,.85-.17.5.5,0,0,1,.36.3c.05.17.05.24.17.28a2.4,2.4,0,0,0,1.47-.4,12.82,12.82,0,0,0,2.57-2,34.37,34.37,0,0,0,4.17-5,31.18,31.18,0,0,1-4.09,5.08,12.6,12.6,0,0,1-2.58,2,2.45,2.45,0,0,1-1.6.42c-.18,0-.25-.28-.27-.36a.34.34,0,0,0-.24-.21,1.17,1.17,0,0,0-.72.16h0a15.31,15.31,0,0,1-4,.83,5.92,5.92,0,0,1-2-.25,2.89,2.89,0,0,1-1.69-1.2v0a3,3,0,0,0-1.38-1.09,3.47,3.47,0,0,0-1.78-.1A8.73,8.73,0,0,0,113.57,170.89Z"/><path class="cls-11" d="M119.9,172.16a2.88,2.88,0,0,0,1.65,1.1,6.43,6.43,0,0,0,2,.21,12.36,12.36,0,0,0,2-.29c.66-.15,1.31-.33,2-.53h0a1.66,1.66,0,0,1,.62-.19.56.56,0,0,1,.58.32c0,.46.57.31.91.21a7.53,7.53,0,0,0,2.08-1.22,24.85,24.85,0,0,0,3.45-3.43,21.65,21.65,0,0,1-3.37,3.53,7.77,7.77,0,0,1-2.11,1.26,1.63,1.63,0,0,1-.62.12.56.56,0,0,1-.34-.1.39.39,0,0,1-.11-.17.5.5,0,0,0,0-.13c-.15-.35-.65-.21-1-.05h0a17,17,0,0,1-2,.56,11.6,11.6,0,0,1-2,.24,6.06,6.06,0,0,1-2-.26A2.73,2.73,0,0,1,119.9,172.16Z"/><path class="cls-11" d="M127.05,174.38a1,1,0,0,1,.8-.26.47.47,0,0,1,.37.3c.06.17,0,.25.15.28a2.28,2.28,0,0,0,1.45-.37,13.22,13.22,0,0,0,2.59-1.89,11.71,11.71,0,0,1-2.52,2,2.25,2.25,0,0,1-1.59.41.35.35,0,0,1-.2-.18l-.06-.19a.41.41,0,0,0-.24-.19A1.8,1.8,0,0,0,127.05,174.38Z"/><path class="cls-11" d="M127.5,176.25c.08.16.24.15.38.14a1.65,1.65,0,0,0,.43-.09c.3-.08.58-.2.9-.27a2.12,2.12,0,0,1-.84.47,1.38,1.38,0,0,1-.5.05C127.71,176.54,127.49,176.44,127.5,176.25Z"/><path class="cls-11" d="M144.41,155.06a4.13,4.13,0,0,1-1.38,2.85,5.78,5.78,0,0,1-1.35.9c-.25.12-.51.21-.76.32l-.78.23h0c-.18,0-.23.27-.2.49s.09.46.13.7l.3,1.4c.22.94.46,1.86.72,2.79.52,1.84,1.09,3.68,1.7,5.49a110.71,110.71,0,0,0,4.32,10.67c-.84-1.72-1.69-3.45-2.41-5.23s-1.44-3.56-2.08-5.38-1.22-3.64-1.71-5.5c-.24-.93-.48-1.86-.69-2.8l-.29-1.42c0-.23-.1-.46-.12-.71a1.22,1.22,0,0,1,0-.38.31.31,0,0,1,.34-.25h0l.77-.22c.25-.1.51-.18.75-.3a5.89,5.89,0,0,0,1.34-.86A4.13,4.13,0,0,0,144.41,155.06Z"/><path class="cls-11" d="M145.59,155.76a4.21,4.21,0,0,1-1.38,2.85,5.64,5.64,0,0,1-1.36.9c-.24.12-.5.21-.75.31l-.78.24h0c-.19,0-.23.27-.2.49s.08.46.12.7l.31,1.4q.33,1.4.72,2.79c.51,1.84,1.08,3.68,1.7,5.49a105.8,105.8,0,0,0,4.32,10.67c-.85-1.72-1.69-3.45-2.42-5.23s-1.43-3.56-2.07-5.38-1.22-3.65-1.71-5.5c-.25-.93-.48-1.87-.69-2.8l-.3-1.42c0-.23-.1-.46-.12-.71a1,1,0,0,1,0-.39.31.31,0,0,1,.33-.24h0l.77-.22c.25-.1.5-.18.74-.3a6,6,0,0,0,1.35-.86A4.21,4.21,0,0,0,145.59,155.76Z"/><path class="cls-11" d="M146.66,156.43a4.08,4.08,0,0,1-1.37,2.87,6,6,0,0,1-1.36.9c-.24.12-.5.21-.75.31l-.79.24h0c-.14,0-.2.23-.18.43a5.24,5.24,0,0,0,.12.67l.29,1.34c.19.9.41,1.79.64,2.68.46,1.77,1,3.53,1.53,5.28-.64-1.72-1.19-3.47-1.68-5.24q-.37-1.33-.69-2.67c-.11-.45-.2-.9-.28-1.35a5.22,5.22,0,0,1-.11-.69,1,1,0,0,1,0-.38.32.32,0,0,1,.35-.24h0l.78-.22c.24-.1.5-.18.74-.29a5.89,5.89,0,0,0,1.34-.86A4.22,4.22,0,0,0,146.66,156.43Z"/><path class="cls-11" d="M147.81,157a4.11,4.11,0,0,1-1.36,2.88,5.64,5.64,0,0,1-1.36.9,8.57,8.57,0,0,1-1.54.55h-.05c-.14,0-.19.28-.16.52s.1.52.14.77l.33,1.55.71,3.09c-.32-1-.61-2-.87-3-.13-.52-.24-1-.35-1.55-.05-.27-.11-.51-.15-.79a1.25,1.25,0,0,1,0-.43.34.34,0,0,1,.38-.31h0l.77-.22c.24-.1.5-.18.74-.3a6.07,6.07,0,0,0,1.34-.85A4.27,4.27,0,0,0,147.81,157Z"/><path class="cls-11" d="M148.84,157.62a4.07,4.07,0,0,1-1.35,2.89,6.24,6.24,0,0,1-1.37.9c-.25.12-.5.21-.76.32l-.79.22h0c-.1,0-.18.14-.17.32a2.59,2.59,0,0,0,.07.55l.23,1.13c.16.75.3,1.51.44,2.27-.19-.74-.39-1.49-.57-2.24l-.28-1.12a2.89,2.89,0,0,1-.08-.59.73.73,0,0,1,.06-.32.31.31,0,0,1,.34-.19h0a9.34,9.34,0,0,0,1.51-.53,5.47,5.47,0,0,0,1.33-.85A4.29,4.29,0,0,0,148.84,157.62Z"/><path class="cls-11" d="M149.88,158.22a4,4,0,0,1-1.35,2.89,5.64,5.64,0,0,1-1.36.9c-.25.12-.51.2-.77.3l-.78.23h0c-.14,0-.22.22-.2.43s.07.44.1.67l.23,1.35-.34-1.33a4.81,4.81,0,0,1-.13-.68.94.94,0,0,1,0-.37.33.33,0,0,1,.35-.25h0l.77-.22c.25-.11.5-.19.74-.31a6.44,6.44,0,0,0,1.33-.86A4.31,4.31,0,0,0,149.88,158.22Z"/></svg>