<?xml version="1.0" encoding="utf-8"?>
<!-- Generator: Adobe Illustrator 24.0.1, SVG Export Plug-In . SVG Version: 6.00 Build 0)  -->
<svg version="1.1" id="Capa_1" xmlns="http://www.w3.org/2000/svg" xmlns:xlink="http://www.w3.org/1999/xlink" x="0px" y="0px"
	 viewBox="0 0 283.5 283.5" style="enable-background:new 0 0 283.5 283.5;" xml:space="preserve">
<style type="text/css">
	.st0{fill:#57B0AC;}
	.st1{fill:#6FC6D2;}
	.st2{fill:#528EC4;}
</style>
<g>
	<polygon class="st0" points="129.5,76.1 111.8,83.2 113.6,66.8 	"/>
	<polygon class="st1" points="33.1,97.9 120.7,30.8 116,52.6 43.7,93.8 113.7,67 109.8,101.4 	"/>
	<polygon class="st2" points="116,52 129.5,76.1 113.7,67 43.8,93.9 	"/>
</g>
<g>
	<polygon class="st0" points="137.2,248.3 120.3,239.5 133.9,230.2 	"/>
	<polygon class="st1" points="54.4,193.8 163.8,209.7 146.2,222.7 62,197.2 133.8,230.3 105.2,249.9 	"/>
	<polygon class="st2" points="146.7,222.3 137.2,248.3 133.8,230.3 61.9,197.2 	"/>
</g>
<g>
	<polygon class="st0" points="139.3,170.9 158,166.9 147.5,154.6 	"/>
	<polygon class="st1" points="232.9,138.5 123.1,126.8 137.6,143.9 221.9,140.6 147.5,154.6 169.7,181.2 	"/>
	<polygon class="st2" points="137.3,143.4 139.3,171 147.5,154.6 221.8,140.6 	"/>
</g>
<image style="overflow:visible;" width="2560" height="1600" xlink:href="../../../../../../Captura de Pantalla 2019-12-08 a la(s) 15.55.05.png"  transform="matrix(9.523356e-02 0 0 9.523356e-02 305.3911 90.0934)">
</image>
</svg>
