<svg id="Capa_1" data-name="Capa 1" xmlns="http://www.w3.org/2000/svg" viewBox="0 0 91.93 123.44"><defs><style>.cls-1{fill:#1d1d1b;}</style></defs><title>logo</title><path class="cls-1" d="M56.66,56.79A38.19,38.19,0,0,1,69,65.36,38.54,38.54,0,0,1,80.72,93.67,38.47,38.47,0,0,1,69,121.89a40.48,40.48,0,0,1-23.81,11.68H5.5V11.17H42a24.14,24.14,0,0,1,17.79,7.36,24.26,24.26,0,0,1,7.31,17.74A24.18,24.18,0,0,1,59.77,54,22.21,22.21,0,0,1,56.66,56.79ZM12.42,18V53.67H43.59q7.53-.78,11.25-4.5a17.55,17.55,0,0,0,5.28-12.9,17.66,17.66,0,0,0-5.32-12.9A17.48,17.48,0,0,0,41.94,18ZM40.73,126.65A31.54,31.54,0,0,0,63.93,117a31.83,31.83,0,0,0,9.61-23.32,32,32,0,0,0-9.61-23.38,31.49,31.49,0,0,0-23.2-9.69H12.42v66.05Z" transform="translate(-5.5 -11.17)"/><path class="cls-1" d="M95.4,122.92a6.81,6.81,0,0,1,0,9.7,6.64,6.64,0,0,1-4.81,2,6.74,6.74,0,0,1-4.89-2,6.81,6.81,0,0,1,0-9.7,6.78,6.78,0,0,1,4.89-2A6.68,6.68,0,0,1,95.4,122.92Z" transform="translate(-5.5 -11.17)"/></svg>