<svg id="Capa_1" data-name="Capa 1" xmlns="http://www.w3.org/2000/svg" viewBox="0 0 658.65 102.69"><defs><style>.cls-1{fill:#1d1d1b;}</style></defs><title>Logo</title><path class="cls-1" d="M106.19,267.89l0,4.32v0h0l-33.87.33.37-.37.2,31.71-.57-.57,33.87-.18h.75V309h-.76l-33.87.06.82-.82L73.2,340l-.88-.87,33.87,0H107v6h-.84L68,345h-.77v-.77l.16-38.19.25-38.19v-.37H68Zm0,0L68,268.26l.36-.37.25,38.19.16,38.19L68,343.5l38.19-.07-.84.84V340l.85.85-33.87,0h-.87V340l.06-31.71v-.82h.81l33.87.06-.76.76v-4.32l.75.75-33.87-.18h-.57v-.57l.2-31.71v-.36h.36l33.87.32,0,0Z" transform="translate(-67.23 -255.07)"/><path class="cls-1" d="M205.8,332.12l3.33,2.87,0,0,0,0a45.7,45.7,0,0,1-4.39,3.58,38.6,38.6,0,0,1-4.87,2.9A36.88,36.88,0,0,1,189.08,345a40.75,40.75,0,0,1-22.38-2.61,34,34,0,0,1-5-2.69,37.31,37.31,0,0,1-4.59-3.4,43.15,43.15,0,0,1-7.63-8.5,37.27,37.27,0,0,1-4.87-10.37,41.49,41.49,0,0,1-1.6-11.35,44,44,0,0,1,.35-5.73,38.65,38.65,0,0,1,1.16-5.64,37.54,37.54,0,0,1,4.84-10.43,43.28,43.28,0,0,1,7.6-8.6,38.83,38.83,0,0,1,4.6-3.48,36.07,36.07,0,0,1,5.08-2.75,41.09,41.09,0,0,1,22.6-2.86,37.45,37.45,0,0,1,11,3.41,40.76,40.76,0,0,1,9.48,6.54l.72.65-.73.64-3.3,2.92-.58.51-.56-.51a32.79,32.79,0,0,0-17.35-8.16,34.86,34.86,0,0,0-19.07,2.51,35.74,35.74,0,0,0-14.62,12.55,31.77,31.77,0,0,0-4.13,8.8,35.33,35.33,0,0,0-1.36,9.66A32.93,32.93,0,0,0,154,324.68a36.29,36.29,0,0,0,14.64,12.79A35.38,35.38,0,0,0,188,340.23,33.82,33.82,0,0,0,205.8,332.12Zm0,0a35.34,35.34,0,0,1-8.23,5.61,32.55,32.55,0,0,1-9.55,2.93,35.93,35.93,0,0,1-19.71-2.46,33.68,33.68,0,0,1-8.48-5.41,38.13,38.13,0,0,1-6.71-7.52,33.15,33.15,0,0,1-4.29-9.15,37.53,37.53,0,0,1-.11-20.06,32.62,32.62,0,0,1,4.22-9.24,37.68,37.68,0,0,1,6.7-7.61,34.15,34.15,0,0,1,8.52-5.55,36.52,36.52,0,0,1,20-2.71,33.43,33.43,0,0,1,9.77,2.89,36.46,36.46,0,0,1,8.49,5.61h-1.14l3.29-2.92v1.29a37.34,37.34,0,0,0-19.58-9.52A39.46,39.46,0,0,0,167.26,271a40.18,40.18,0,0,0-16.65,14.19,36.11,36.11,0,0,0-4.67,10,40.9,40.9,0,0,0-1.54,10.95,40.34,40.34,0,0,0,1.43,11,35.77,35.77,0,0,0,4.59,10.06A38.53,38.53,0,0,0,189,344.44a36.26,36.26,0,0,0,10.72-3.21,40.59,40.59,0,0,0,9.35-6.24v.09Z" transform="translate(-67.23 -255.07)"/><path class="cls-1" d="M306,332.12l3.33,2.87,0,0,0,0a45.7,45.7,0,0,1-4.39,3.58,38.6,38.6,0,0,1-4.87,2.9A36.88,36.88,0,0,1,289.28,345a40.75,40.75,0,0,1-22.38-2.61,34,34,0,0,1-5-2.69,37.31,37.31,0,0,1-4.59-3.4,42.84,42.84,0,0,1-7.63-8.5,37.27,37.27,0,0,1-4.87-10.37,41.89,41.89,0,0,1-1.61-11.35,47.77,47.77,0,0,1,.35-5.73,40,40,0,0,1,1.17-5.64,37.54,37.54,0,0,1,4.84-10.43,43.28,43.28,0,0,1,7.6-8.6,38.83,38.83,0,0,1,4.6-3.48,36,36,0,0,1,5.07-2.75,41.14,41.14,0,0,1,22.61-2.86,37.45,37.45,0,0,1,11,3.41,40.76,40.76,0,0,1,9.48,6.54l.72.65-.73.64-3.3,2.92-.58.51-.57-.51a32.72,32.72,0,0,0-17.34-8.16A34.86,34.86,0,0,0,269,275.1a35.74,35.74,0,0,0-14.62,12.55,31.49,31.49,0,0,0-4.13,8.8,35.33,35.33,0,0,0-1.36,9.66,33,33,0,0,0,5.3,18.57,36.42,36.42,0,0,0,14.64,12.79,35.43,35.43,0,0,0,19.32,2.76A33.85,33.85,0,0,0,306,332.12Zm0,0a35.34,35.34,0,0,1-8.23,5.61,32.55,32.55,0,0,1-9.55,2.93,35.91,35.91,0,0,1-19.71-2.46,33.68,33.68,0,0,1-8.48-5.41,38.13,38.13,0,0,1-6.71-7.52,32.86,32.86,0,0,1-4.29-9.15,36.9,36.9,0,0,1-1.42-10,36.36,36.36,0,0,1,1.31-10.05,32.87,32.87,0,0,1,4.21-9.24,38,38,0,0,1,6.71-7.61,34.27,34.27,0,0,1,8.51-5.55,36.55,36.55,0,0,1,20-2.71,33.52,33.52,0,0,1,9.77,2.89,36.46,36.46,0,0,1,8.49,5.61h-1.15l3.29-2.92v1.29a37.27,37.27,0,0,0-19.57-9.52A39.51,39.51,0,0,0,267.45,271a40.21,40.21,0,0,0-16.64,14.19,36.11,36.11,0,0,0-4.67,10,40.9,40.9,0,0,0-1.54,10.95,40.34,40.34,0,0,0,1.43,11,35.77,35.77,0,0,0,4.59,10.06,38.53,38.53,0,0,0,38.57,17.31,36.26,36.26,0,0,0,10.72-3.21,40.59,40.59,0,0,0,9.35-6.24v.09Z" transform="translate(-67.23 -255.07)"/><path class="cls-1" d="M410.33,278.29A37.75,37.75,0,0,1,421.93,306a39.63,39.63,0,1,1-79.26,0,39.29,39.29,0,0,1,3.06-15.28,39.21,39.21,0,0,1,36.89-24,37.81,37.81,0,0,1,27.71,11.61Zm0,0a37.68,37.68,0,0,0-27.71-11.35,39.36,39.36,0,0,0-35.76,24.25A39,39,0,0,0,344.19,306a38.24,38.24,0,0,0,38.43,38.43,38.64,38.64,0,0,0,27.71-66.14Z" transform="translate(-67.23 -255.07)"/><path class="cls-1" d="M382.59,271.19a33.39,33.39,0,0,0-24.5,10.32,34.75,34.75,0,0,0-7.15,37.64,34.49,34.49,0,0,0,7.63,10.93,33.88,33.88,0,0,0,48.13,0A33,33,0,0,0,417,306a34.75,34.75,0,0,0-21.06-32.17A34.81,34.81,0,0,0,382.59,271.19Zm0,0a33.64,33.64,0,0,1,24.71,10.1,35.74,35.74,0,0,1,7.83,11.22A34.91,34.91,0,0,1,417.88,306a35.43,35.43,0,0,1-2.43,13.6,34.93,34.93,0,0,1-7.67,11.55,35,35,0,0,1-50.28,0,35.67,35.67,0,0,1-7.41-38.6,35.63,35.63,0,0,1,7.82-11.24,35,35,0,0,1,11.3-7.63A34.45,34.45,0,0,1,382.59,271.19Z" transform="translate(-67.23 -255.07)"/><path class="cls-1" d="M418.52,270.1a50.58,50.58,0,0,1,11.19,16.39,51.69,51.69,0,0,1-67,67.59,51.71,51.71,0,0,1,.29-95.47,50.88,50.88,0,0,1,55.53,11.49Zm0,0a48.47,48.47,0,0,0-35.9-14.71,49.75,49.75,0,1,0,47,31.14A50.57,50.57,0,0,0,418.52,270.1Z" transform="translate(-67.23 -255.07)"/><path class="cls-1" d="M382.59,260.9a45.16,45.16,0,0,0-41.44,28,45.21,45.21,0,0,0,24.61,57.92,46.35,46.35,0,0,0,33.77,0,44.82,44.82,0,0,0,.35-82.51A45.14,45.14,0,0,0,382.59,260.9Zm0,0a44,44,0,0,1,32,13.09,45.92,45.92,0,0,1,10.14,14.53A45.19,45.19,0,0,1,428.3,306a45.46,45.46,0,1,1-63-41.79A44.94,44.94,0,0,1,382.59,260.9Z" transform="translate(-67.23 -255.07)"/><path class="cls-1" d="M388.68,299.94a8.67,8.67,0,1,1-12.19-.07A8.67,8.67,0,0,1,388.68,299.94Zm0,0a8.47,8.47,0,1,0-.07,12.05A8.48,8.48,0,0,0,388.68,299.94Z" transform="translate(-67.23 -255.07)"/><path class="cls-1" d="M382.61,298.38a7.52,7.52,0,1,0,7.53,7.61A7.54,7.54,0,0,0,382.61,298.38Zm0,0A7.72,7.72,0,1,1,374.9,306,7.72,7.72,0,0,1,382.61,298.38Z" transform="translate(-67.23 -255.07)"/><path class="cls-1" d="M463,317.8l.42,26.47v.42H463l-4.33,0h-.47v-.48c-.09-12.73-.27-25.46-.3-38.19l-.11-38.19V267h.89l20.05.05h.11a26.42,26.42,0,0,1,10.67,3.84,27.07,27.07,0,0,1,8.06,8,25.1,25.1,0,0,1,2.56,5.1,24.85,24.85,0,0,1,1.25,5.56,27,27,0,0,1-1.1,11.22,24.85,24.85,0,0,1-20.62,17.09,38.29,38.29,0,0,1-5.55.16Zm0,0,11.06-.2a38.57,38.57,0,0,0,5.51-.32,23.37,23.37,0,0,0,5.27-1.44,24.66,24.66,0,0,0,8.84-6.2,23.45,23.45,0,0,0,5.45-9.25,24.78,24.78,0,0,0-2.85-20.67,25.6,25.6,0,0,0-7.63-7.46,25,25,0,0,0-10.05-3.54h.12l-20.05,0,.89-.89-.11,38.19c0,12.73-.21,25.46-.3,38.19l-.48-.47,4.33,0-.43.43Z" transform="translate(-67.23 -255.07)"/><path class="cls-1" d="M463,272.27l.46,20.77c.11,6.83.26,13.62.31,20.39l-.77-.78,11.33-.08a26.83,26.83,0,0,0,5.49-.36,18.76,18.76,0,0,0,5.09-1.77,21.33,21.33,0,0,0,7.89-7.29,20.24,20.24,0,0,0,.16-20.71,21.38,21.38,0,0,0-7.89-7.51,21.66,21.66,0,0,0-10.71-2.35Zm0,0,11.3-.31a27.76,27.76,0,0,1,5.76.23,19.83,19.83,0,0,1,5.5,1.8,21,21,0,0,1,4.78,3.29,22.64,22.64,0,0,1,3.81,4.41,20.36,20.36,0,0,1,3.2,11.15,20.59,20.59,0,0,1-3.08,11.23,22.33,22.33,0,0,1-3.75,4.52,21.16,21.16,0,0,1-4.8,3.42,20.48,20.48,0,0,1-5.58,1.91,24.12,24.12,0,0,1-2.93.34c-1,0-1.94,0-2.88,0L463,314.21h-.79v-.77c.05-7,.21-13.89.32-20.77Z" transform="translate(-67.23 -255.07)"/><path class="cls-1" d="M602.09,278.29A37.81,37.81,0,0,1,613.7,306a39.64,39.64,0,1,1-79.27,0,39.29,39.29,0,0,1,3.06-15.28,40.27,40.27,0,0,1,52-21.1A39.27,39.27,0,0,1,602.09,278.29Zm0,0a37.68,37.68,0,0,0-27.71-11.35,38.4,38.4,0,0,0-14.94,3A38.29,38.29,0,0,0,536,306a38.24,38.24,0,0,0,38.43,38.43,39.22,39.22,0,0,0,36.06-23.49,40.14,40.14,0,0,0,.2-30A39.14,39.14,0,0,0,602.09,278.29Z" transform="translate(-67.23 -255.07)"/><path class="cls-1" d="M574.35,271.19a33.39,33.39,0,0,0-24.5,10.32,34.75,34.75,0,0,0-7.15,37.64,34.49,34.49,0,0,0,7.63,10.93,34.12,34.12,0,0,0,11,7.43,36.27,36.27,0,0,0,26.08,0,34.13,34.13,0,0,0,11-7.43,34.82,34.82,0,0,0,7.62-10.95,34,34,0,0,0-7.21-37.63,33.5,33.5,0,0,0-24.52-10.28Zm0,0a33.64,33.64,0,0,1,24.71,10.1,35.74,35.74,0,0,1,7.83,11.22,34.9,34.9,0,0,1-7.35,38.61,35.24,35.24,0,1,1-49.87-49.79,34.9,34.9,0,0,1,11.3-7.64A34.45,34.45,0,0,1,574.35,271.19Z" transform="translate(-67.23 -255.07)"/><path class="cls-1" d="M650.41,344.27l-.5-38-.19-19.17c-.09-6.4-.08-12.82-.11-19.23v-.79h5.92v.8c0,12,.11,24,.07,36l-.11,36-.76-.76,14.56.1,14.55.13h.54V340l0,4.32v.5h-.49c-5.63,0-11.25-.15-16.82-.23Zm0,0,16.82-.26c5.57-.08,11.1-.2,16.61-.23l-.49.49,0-4.32.53.53-14.55.13-14.56.1H654V340l-.11-36c0-12,0-24,.07-36l.8.81-4.32,0,.79-.79c0,6.32,0,12.63-.1,19l-.2,19Z" transform="translate(-67.23 -255.07)"/><path class="cls-1" d="M725,267.89l.34,18.87.27,19.07c.1,6.37.14,12.78.17,19.2l.09,19.24v.87H725l-4.32,0h-.9v-.89l.07-19.09c0-6.37,0-12.73.11-19.1L720.2,287l.36-19.1v-.12h.12Zm0,0-4.32.12.11-.12.36,19.1.24,19.09c.08,6.37.06,12.73.1,19.1l.07,19.09-.88-.89,4.32,0-.87.87.09-18.94c0-6.32.07-12.64.17-19l.27-19.11Z" transform="translate(-67.23 -255.07)"/><path class="cls-1" d="M380.08,301.12a9.07,9.07,0,0,0-2.28,2.47,3.91,3.91,0,0,0-.53,3.12,5.73,5.73,0,0,0,1.88,2.6,22.12,22.12,0,0,0,2.81,1.87l.72.43.36.2.16.07h0a.3.3,0,0,0-.17.1.24.24,0,0,0,0,.13v0s-.08-.15-.15-.24l-.23-.35-.49-.7a17.94,17.94,0,0,1-1.73-3,10.54,10.54,0,0,1-.9-3.35A6.69,6.69,0,0,1,380.08,301.12Zm0,0a8.3,8.3,0,0,0,.73,6.52,20.37,20.37,0,0,0,1.76,2.88l.5.69.25.36a1.34,1.34,0,0,1,.24.51.28.28,0,0,1,0,.09.41.41,0,0,1-.07.17.39.39,0,0,1-.26.14.51.51,0,0,1-.22,0l-.24-.09-.4-.21-.75-.43a23.46,23.46,0,0,1-2.85-2,5.78,5.78,0,0,1-2-2.91,4.25,4.25,0,0,1,.73-3.4A8.47,8.47,0,0,1,380.08,301.12Z" transform="translate(-67.23 -255.07)"/></svg>